<svg height="512" viewBox="0 0 64 64" width="512" xmlns="http://www.w3.org/2000/svg"><g id="avatar-user-laptop-woman-girl"><path d="m26 36.31v4.69l13.52 3.6a2.013 2.013 0 0 1 1.48 1.94v14.46h-38v-14.46a2.013 2.013 0 0 1 1.48-1.94l13.52-3.6v-4.69" fill="#ffde55"/><path d="m38 32.81 2.48 6.19h-14.48v-2.69a11.976 11.976 0 0 0 7.96-10.31h.04a4 4 0 0 0 4-4z" fill="#ffcd00"/><path d="m38 19v3a3.995 3.995 0 0 0 -4-4l-12-5-12 5a3.995 3.995 0 0 0 -4 4v-3a16 16 0 0 1 32 0z" fill="#ffcd00"/><path d="m36.83 19.17a4 4 0 0 1 -2.83 6.83h-.04c.03-.33.04-.66.04-1v-7a4.025 4.025 0 0 1 2.83 1.17z" fill="#ffc477"/><path d="m34 18v7c0 .34-.01.67-.04 1a11.976 11.976 0 0 1 -7.96 10.31 11.939 11.939 0 0 1 -8 0 11.976 11.976 0 0 1 -7.96-10.31c-.03-.33-.04-.66-.04-1v-7l12-5z" fill="#ffc477"/><path d="m40.48 39h-4l-2.48-6.19v-6.81a4 4 0 0 0 4-4v10.81z" fill="#ddb200"/><path d="m38 19v3a3.995 3.995 0 0 0 -4-4l-.03-.01a16.027 16.027 0 0 0 -13.97-14.86 14.609 14.609 0 0 1 2-.13 16.021 16.021 0 0 1 16 16z" fill="#ddb200"/><path d="m34 18v7c0 .34-.01.67-.04 1a11.976 11.976 0 0 1 -7.96 10.31 11.8 11.8 0 0 1 -4 .69 12 12 0 0 1 -2-.17 11.082 11.082 0 0 0 2-.52 11.976 11.976 0 0 0 7.96-10.31c.03-.33.04-.66.04-1v-7l-10-4.17 2-.83z" fill="#ffa733"/><path d="m31 57v4h-10a2.006 2.006 0 0 1 -2-2v-2z" fill="#acabb1"/><path d="m26 36.31v4.69h-8v-4.69a11.939 11.939 0 0 0 8 0z" fill="#ffc477"/><path d="m18 36.31v2.69h-14.48l2.48-6.19v-10.81a4 4 0 0 0 4 4h.04a11.976 11.976 0 0 0 7.96 10.31z" fill="#ffcd00"/><path d="m10.04 26h-.04a4 4 0 1 1 0-8v7c0 .34.01.67.04 1z" fill="#ffc477"/><path d="m61 41v20h-30v-20a2.006 2.006 0 0 1 2-2h26a2.006 2.006 0 0 1 2 2z" fill="#c6c5ca"/><path d="m61 41v20h-4v-20a2.006 2.006 0 0 0 -2-2h4a2.006 2.006 0 0 1 2 2z" fill="#898890"/><path d="m16 21a3 3 0 0 0 -3 3h2a1 1 0 0 1 2 0h2a3 3 0 0 0 -3-3z"/><path d="m28 21a3 3 0 0 0 -3 3h2a1 1 0 0 1 2 0h2a3 3 0 0 0 -3-3z"/><path d="m22 31a1 1 0 0 1 -1-1h-2a3 3 0 0 0 6 0h-2a1 1 0 0 1 -1 1z"/><path d="m59 38h-17.84l-2.16-5.38v-13.62a17 17 0 0 0 -34 0v13.62l-2.41 6.01a.992.992 0 0 0 .1.93 1.024 1.024 0 0 0 .83.44h13.48v.23l-12.79 3.41a3.018 3.018 0 0 0 -2.21 2.9v14.46a1 1 0 0 0 1 1h58a1 1 0 0 0 1-1v-20a3.009 3.009 0 0 0 -3-3zm-37-34a15.012 15.012 0 0 1 14.95 13.98 5 5 0 0 0 -2.69-.95l-11.88-4.95a.916.916 0 0 0 -.76 0l-11.88 4.95a5.033 5.033 0 0 0 -2.69.95 15.012 15.012 0 0 1 14.95-13.98zm15 18a2.994 2.994 0 0 1 -2 2.81v-5.63a3.179 3.179 0 0 1 1.12.69 3.03 3.03 0 0 1 .88 2.13zm-15 14a11.007 11.007 0 0 1 -11-11v-6.33l11-4.59 11 4.59v6.33a11.007 11.007 0 0 1 -11 11zm3 1.64v2.36h-6v-2.36a12.68 12.68 0 0 0 6 0zm-17.13-17.76a3.1 3.1 0 0 1 1.13-.7v5.64a3 3 0 0 1 -1.13-4.94zm-2.87 18.12 1.93-4.82a.937.937 0 0 0 .07-.37v-6.84a4.958 4.958 0 0 0 2.16.94 13.017 13.017 0 0 0 7.84 10.09v1zm13 19v2a3 3 0 0 0 .18 1h-6.18a4 4 0 0 1 0-8v-2a5.99 5.99 0 0 0 -4.46 10h-3.54v-13.46a1.008 1.008 0 0 1 .74-.97l13.39-3.57h2.87v14h-2a1 1 0 0 0 -1 1zm12 3h-9a1 1 0 0 1 -1-1v-1h10zm0-4h-7v-14h2.87l4.13 1.1zm0-15v.03l-3-.8v-.23h3.18a3 3 0 0 0 -.18 1zm-3-3v-1a13.017 13.017 0 0 0 7.84-10.09 4.736 4.736 0 0 0 2.16-.94v6.84a.937.937 0 0 0 .07.37l1.93 4.82zm33 22h-28v-19a1 1 0 0 1 1-1h26a1 1 0 0 1 1 1z"/><circle cx="46" cy="50" r="2"/><path d="m35 56h2v2h-2z"/><path d="m39 56h2v2h-2z"/><path d="m43 56h2v2h-2z"/><path d="m47 56h2v2h-2z"/><path d="m51 56h2v2h-2z"/><path d="m55 56h2v2h-2z"/></g></svg>