<svg height="512" viewBox="0 0 64 64" width="512" xmlns="http://www.w3.org/2000/svg"><g id="avatar-woman-girl-latop-user"><path d="m31 57v4h-10a2.006 2.006 0 0 1 -2-2v-2z" fill="#acabb1"/><path d="m29 36.31v4.69l13.52 3.6a2.013 2.013 0 0 1 1.48 1.94v14.46h-38v-14.46a2.013 2.013 0 0 1 1.48-1.94l13.52-3.6v-4.69" fill="#f072ae"/><path d="m31 57v4h-10a2.006 2.006 0 0 1 -2-2v-2z" fill="#acabb1"/><path d="m47 13v25a10 10 0 0 1 -10-10v-2a4 4 0 1 0 0-8v-3a12 12 0 0 0 -.72-4.09 2.841 2.841 0 0 0 .72.09 2.988 2.988 0 0 0 2.96-2.57 5.1 5.1 0 0 1 2.04-.43 5 5 0 0 1 5 5z" fill="#ffcd00"/><path d="m47 13v25a9.934 9.934 0 0 1 -6-2.01v-22.99a5.006 5.006 0 0 0 -1.41-3.49 2.889 2.889 0 0 0 .37-1.08 5.1 5.1 0 0 1 2.04-.43 5 5 0 0 1 5 5z" fill="#ddb200"/><path d="m39.83 19.17a4 4 0 0 1 -2.83 6.83h-.04c.03-.33.04-.66.04-1v-7a4.025 4.025 0 0 1 2.83 1.17z" fill="#ffc477"/><path d="m40 8a2.024 2.024 0 0 1 -.04.43 2.988 2.988 0 0 1 -2.96 2.57 2.841 2.841 0 0 1 -.72-.09 2.993 2.993 0 0 1 -2.28-2.91 2.739 2.739 0 0 1 .12-.81 3 3 0 0 1 5.88.81z" fill="#f072ae"/><path d="m37 18v7c0 .34-.01.67-.04 1a11.976 11.976 0 0 1 -7.96 10.31 11.939 11.939 0 0 1 -8 0 11.976 11.976 0 0 1 -7.96-10.31c-.03-.33-.04-.66-.04-1v-7l17-7z" fill="#ffc477"/><path d="m37 18v7c0 .34-.01.67-.04 1a11.976 11.976 0 0 1 -7.96 10.31 11.8 11.8 0 0 1 -4 .69 12 12 0 0 1 -2-.17 11.082 11.082 0 0 0 2-.52 11.976 11.976 0 0 0 7.96-10.31c.03-.33.04-.66.04-1v-7l-5.83-5.83 2.83-1.17z" fill="#ffa733"/><path d="m13 18v-3a11.766 11.766 0 0 1 .72-4.09 2.993 2.993 0 0 0 2.28-2.91 2.739 2.739 0 0 0 -.12-.81 12.022 12.022 0 0 1 17.61-.68c.22.22.43.45.63.68a2.739 2.739 0 0 0 -.12.81 2.993 2.993 0 0 0 2.28 2.91 12 12 0 0 1 .72 4.09v3l-7-7z" fill="#ffcd00"/><path d="m29 36.31v4.69l-4 3-4-3v-4.69a11.939 11.939 0 0 0 8 0z" fill="#ffc477"/><path d="m15.88 7.19a2.739 2.739 0 0 1 .12.81 2.993 2.993 0 0 1 -2.28 2.91 2.841 2.841 0 0 1 -.72.09 2.988 2.988 0 0 1 -2.96-2.57 2.024 2.024 0 0 1 -.04-.43 3 3 0 0 1 5.88-.81z" fill="#f072ae"/><path d="m13 11a2.841 2.841 0 0 0 .72-.09 11.766 11.766 0 0 0 -.72 4.09v3a4 4 0 0 0 0 8v2a10 10 0 0 1 -10 10v-25a5 5 0 0 1 5-5 5.1 5.1 0 0 1 2.04.43 2.988 2.988 0 0 0 2.96 2.57z" fill="#ffcd00"/><path d="m13.04 26h-.04a4 4 0 1 1 0-8v7c0 .34.01.67.04 1z" fill="#ffc477"/><path d="m61 41v20h-30v-20a2.006 2.006 0 0 1 2-2h26a2.006 2.006 0 0 1 2 2z" fill="#c6c5ca"/><path d="m61 41v20h-4v-20a2.006 2.006 0 0 0 -2-2h4a2.006 2.006 0 0 1 2 2z" fill="#898890"/><path d="m19 21a3 3 0 0 0 -3 3h2a1 1 0 0 1 2 0h2a3 3 0 0 0 -3-3z"/><path d="m31 23a1 1 0 0 1 1 1h2a3 3 0 0 0 -6 0h2a1 1 0 0 1 1-1z"/><path d="m28 30h-2a1 1 0 0 1 -2 0h-2a3 3 0 0 0 6 0z"/><path d="m59 38h-11v-25a5.969 5.969 0 0 0 -7.11-5.89 3.97 3.97 0 0 0 -7-1.59 12.9 12.9 0 0 0 -8.89-3.52 13.067 13.067 0 0 0 -8.89 3.51 3.976 3.976 0 0 0 -7 1.6 5.969 5.969 0 0 0 -7.11 5.89v25a1 1 0 0 0 1 1 11.016 11.016 0 0 0 10.54-7.87 13.1 13.1 0 0 0 6.46 5.87v3.23l-12.79 3.41a3.018 3.018 0 0 0 -2.21 2.9v14.46a1 1 0 0 0 1 1h55a1 1 0 0 0 1-1v-20a3.009 3.009 0 0 0 -3-3zm-18.21-28.79a3.9 3.9 0 0 1 1.21-.21 4 4 0 0 1 4 4v23.94a9.008 9.008 0 0 1 -8-8.94v-1.1a5 5 0 0 0 2.53-8.44 5.068 5.068 0 0 0 -2.53-1.36v-2.1a12.573 12.573 0 0 0 -.38-3.06 3.976 3.976 0 0 0 3.17-2.73zm-2.79 15.6v-5.63a3.179 3.179 0 0 1 1.12.69 3.03 3.03 0 0 1 .88 2.13 2.994 2.994 0 0 1 -2 2.81zm-1-18.81a2 2 0 1 1 -2 2 2.006 2.006 0 0 1 2-2zm-20 2a3.713 3.713 0 0 0 -.05-.48 11 11 0 0 1 15.83-.31c.1.1.18.2.27.3a3.87 3.87 0 0 0 -.05.49 4.011 4.011 0 0 0 2.48 3.7 10.89 10.89 0 0 1 .52 3.3v.59l-5.29-5.3a1 1 0 0 0 -1.09-.21l-2.62 1.07v-4.15h-2v4.98l-2 .82v-4.8h-2v5.62l-7 2.89v-1.51a10.7 10.7 0 0 1 .52-3.3 4.011 4.011 0 0 0 2.48-3.7zm-5 16.82a3 3 0 0 1 -1.13-4.94 3.1 3.1 0 0 1 1.13-.7zm0-9.82v2.1a5 5 0 0 0 0 9.79v1.11a9.008 9.008 0 0 1 -8 8.94v-23.94a4 4 0 0 1 4-4 3.9 3.9 0 0 1 1.21.21 3.977 3.977 0 0 0 3.16 2.73 12.947 12.947 0 0 0 -.37 3.06zm1-5a2 2 0 1 1 2-2 2.006 2.006 0 0 1 -2 2zm1 15v-6.33l15.76-6.49 6.24 6.23v6.59a11 11 0 0 1 -22 0zm14 12.64v2.86l-3 2.25-3-2.25v-2.86a12.68 12.68 0 0 0 6 0zm2 22.36h-9a1 1 0 0 1 -1-1v-1h10zm0-4h-11a1 1 0 0 0 -1 1v2a3 3 0 0 0 .18 1h-3.18a4 4 0 0 1 0-8v-2a5.99 5.99 0 0 0 -4.46 10h-3.54v-13.46a1.008 1.008 0 0 1 .74-.97l13.05-3.48 2.88 2.16-4.52 7.22 1.7 1.06 3.15-5.04v4.51h2v-4.51l3.15 5.04.85-.53zm0-5.89-3.67-5.86 2.88-2.16.79.21zm.1-9.85-.1-.03v-3.23a13.1 13.1 0 0 0 6.46-5.87 11.046 11.046 0 0 0 5.98 6.87h-9.44a3 3 0 0 0 -2.9 2.26zm29.9 19.74h-28v-19a1 1 0 0 1 1-1h26a1 1 0 0 1 1 1z"/><circle cx="46" cy="50" r="2"/><path d="m35 56h2v2h-2z"/><path d="m39 56h2v2h-2z"/><path d="m43 56h2v2h-2z"/><path d="m47 56h2v2h-2z"/><path d="m51 56h2v2h-2z"/><path d="m55 56h2v2h-2z"/></g></svg>