<svg height="512" viewBox="0 0 64 64" width="512" xmlns="http://www.w3.org/2000/svg"><g id="boy-avatar-man-laptop-working"><path d="m26 36.31v4.69l13.52 3.6a2.013 2.013 0 0 1 1.48 1.94v14.46h-38v-14.46a2.013 2.013 0 0 1 1.48-1.94l13.52-3.6v-4.69" fill="#ebfec0"/><path d="m29 41.8v10.2l-5-4.29-2-1.71 4-5z" fill="#7ed63e"/><path d="m24 52 1 9h-6l1-9z" fill="#7ed63e"/><path d="m24 47.71v4.29h-4v-4.29l2-1.71z" fill="#5eac24"/><path d="m18 41 4 5-2 1.71-5 4.29v-10.2z" fill="#7ed63e"/><path d="m34 18a4 4 0 1 1 0 8h-.04c.03-.33.04-.66.04-1z" fill="#ffc477"/><path d="m34 18v7c0 .34-.01.67-.04 1a11.976 11.976 0 0 1 -7.96 10.31 11.939 11.939 0 0 1 -8 0 11.976 11.976 0 0 1 -7.96-10.31c-.03-.33-.04-.66-.04-1v-7h3a1 1 0 0 0 1-1 2.015 2.015 0 0 1 2-2h12a2.006 2.006 0 0 1 2 2 1 1 0 0 0 1 1z" fill="#ffc477"/><path d="m34 18v7c0 .34-.01.67-.04 1a11.976 11.976 0 0 1 -7.96 10.31 11.8 11.8 0 0 1 -4 .69 12 12 0 0 1 -2-.17 11.082 11.082 0 0 0 2-.52 11.976 11.976 0 0 0 7.96-10.31c.03-.33.04-.66.04-1v-7h-3a1 1 0 0 1 -1-1 2.006 2.006 0 0 0 -2-2h4a2.006 2.006 0 0 1 2 2 1 1 0 0 0 1 1z" fill="#ffa733"/><path d="m34 11.94v6.06h-3a1 1 0 0 1 -1-1 2.006 2.006 0 0 0 -2-2h-12a2.015 2.015 0 0 0 -2 2 1 1 0 0 1 -1 1h-3v-7.45a4 4 0 0 1 5.26-3.8l3.74 1.25v-5l3 3 3-3v5l2.42-.81a5 5 0 0 1 6.58 4.75z" fill="#ffcd00"/><path d="m34 11.94v6.06h-3a1 1 0 0 1 -1-1v-5.06a4.979 4.979 0 0 0 -3.03-4.6l.45-.15a5 5 0 0 1 6.58 4.75z" fill="#ddb200"/><path d="m31 57v4h-10a2.006 2.006 0 0 1 -2-2v-2z" fill="#acabb1"/><path d="m26 36.31v4.69l-4 5-4-5v-4.69a11.939 11.939 0 0 0 8 0z" fill="#ffc477"/><path d="m10.04 26h-.04a4 4 0 0 1 0-8v7c0 .34.01.67.04 1z" fill="#ffc477"/><path d="m61 41v20h-30v-20a2.006 2.006 0 0 1 2-2h26a2.006 2.006 0 0 1 2 2z" fill="#c6c5ca"/><path d="m61 41v20h-4v-20a2.006 2.006 0 0 0 -2-2h4a2.006 2.006 0 0 1 2 2z" fill="#898890"/><path d="m19 23a3 3 0 0 0 -6 0h2a1 1 0 0 1 2 0z"/><path d="m28 22a1 1 0 0 1 1 1h2a3 3 0 0 0 -6 0h2a1 1 0 0 1 1-1z"/><path d="m27 29h-2c0 .249-1.064 1-3 1s-3-.751-3-1h-2c0 1.71 2.149 3 5 3s5-1.29 5-3z"/><path d="m59 38h-26a3.009 3.009 0 0 0 -3 3v.03l-3-.8v-3.23a13.022 13.022 0 0 0 7.84-10.08 4.982 4.982 0 0 0 4.16-4.92 5.017 5.017 0 0 0 -4-4.9v-5.16a5.994 5.994 0 0 0 -7.9-5.69l-1.1.36v-3.61a.987.987 0 0 0 -.62-.92 1 1 0 0 0 -1.09.21l-2.29 2.3-2.29-2.3a1 1 0 0 0 -1.09-.21.987.987 0 0 0 -.62.92v3.61l-2.42-.8a4.994 4.994 0 0 0 -6.58 4.74v6.55a4.994 4.994 0 0 0 .16 9.82 13.037 13.037 0 0 0 7.84 10.08v3.23l-12.79 3.41a3.018 3.018 0 0 0 -2.21 2.9v14.46a1 1 0 0 0 1 1h58a1 1 0 0 0 1-1v-20a3.009 3.009 0 0 0 -3-3zm-24-18.82a3 3 0 0 1 1.13 4.94 2.951 2.951 0 0 1 -1.13.69zm-26 5.64a3.179 3.179 0 0 1 -1.12-.69 3 3 0 0 1 1.12-4.95zm19 17.75v7.26l-4.62-3.96 2.99-3.74zm-6 1.83-3-3.75v-3.01a12.68 12.68 0 0 0 6 0v3.01zm1 3.77v2.83h-2v-2.83l1-.85zm.11 4.83.33 3h-2.88l.33-3zm-12.11-42.45a3.014 3.014 0 0 1 2.99-3 3.2 3.2 0 0 1 .96.15l3.73 1.25a1 1 0 0 0 .9-.14.983.983 0 0 0 .42-.81v-2.59l1.29 1.3a1.008 1.008 0 0 0 1.42 0l1.29-1.3v2.59a.983.983 0 0 0 .42.81 1 1 0 0 0 .9.14l2.42-.81a4 4 0 0 1 5.26 3.8v5.06h-2a3.009 3.009 0 0 0 -3-3h-12a3.009 3.009 0 0 0 -3 3h-2zm0 14.45v-6h2a2.006 2.006 0 0 0 2-2 1 1 0 0 1 1-1h12a1 1 0 0 1 1 1 2.006 2.006 0 0 0 2 2h2v6a11 11 0 0 1 -22 0zm5 17.57 1.63-.44 2.99 3.74-4.62 3.96zm3 9.37-.47 4.19a1 1 0 0 0 -.53.87v2a3 3 0 0 0 .18 1h-14.18v-13.46a1.017 1.017 0 0 1 .74-.97l9.26-2.47v8.9a1 1 0 0 0 .58.91 1.017 1.017 0 0 0 1.07-.15l3.35-2.87zm11 8.06h-9a1 1 0 0 1 -1-1v-1h10zm0-4h-4.55l-.45-4.06v-2.05l3.35 2.87a.987.987 0 0 0 .65.24 1.059 1.059 0 0 0 .42-.09 1 1 0 0 0 .58-.91zm30 4h-28v-19a1 1 0 0 1 1-1h26a1 1 0 0 1 1 1z"/><circle cx="46" cy="50" r="2"/><path d="m35 56h2v2h-2z"/><path d="m39 56h2v2h-2z"/><path d="m43 56h2v2h-2z"/><path d="m47 56h2v2h-2z"/><path d="m51 56h2v2h-2z"/><path d="m55 56h2v2h-2z"/></g></svg>