<svg height="512" viewBox="0 0 64 64" width="512" xmlns="http://www.w3.org/2000/svg"><g id="business_woman-woman-working-laptop-user" data-name="business woman-woman-working-laptop-user"><path d="m26 36.31v4.69l13.52 3.6a2.013 2.013 0 0 1 1.48 1.94v14.46h-38v-14.46a2.013 2.013 0 0 1 1.48-1.94l13.52-3.6v-4.69" fill="#ddfffb"/><path d="m15 13.14a5.429 5.429 0 0 0 -.83.69l-4.17 4.17a3.995 3.995 0 0 0 -4 4v-3a16 16 0 1 1 32 0v3a3.995 3.995 0 0 0 -4-4l-13.3-5.48a6.135 6.135 0 0 0 -1.7-.42 6 6 0 0 0 -4 1.04z" fill="#ffcd00"/><path d="m36.83 19.17a4 4 0 0 1 -2.83 6.83h-.04c.03-.33.04-.66.04-1v-7a4.025 4.025 0 0 1 2.83 1.17z" fill="#ffc477"/><path d="m34 18v7c0 .34-.01.67-.04 1a11.976 11.976 0 0 1 -7.96 10.31 11.939 11.939 0 0 1 -8 0 11.976 11.976 0 0 1 -7.96-10.31c-.03-.33-.04-.66-.04-1v-7l4.17-4.17a5.429 5.429 0 0 1 .83-.69 6 6 0 0 1 4-1.04 6.135 6.135 0 0 1 1.7.42z" fill="#ffc477"/><path d="m38 19v3a3.995 3.995 0 0 0 -4-4l-.03-.01a15.959 15.959 0 0 0 -13.99-14.86 15.009 15.009 0 0 1 2.02-.13 15.979 15.979 0 0 1 16 16z" fill="#ddb200"/><path d="m34 18v7c0 .34-.01.67-.04 1a11.976 11.976 0 0 1 -7.96 10.31 11.8 11.8 0 0 1 -4 .69 12 12 0 0 1 -2-.17 11.082 11.082 0 0 0 2-.52 11.976 11.976 0 0 0 7.96-10.31c.03-.33.04-.66.04-1v-7l-13.3-5.48c-.1-.04-.19-.07-.29-.1a5.847 5.847 0 0 1 2.59-.32 6.135 6.135 0 0 1 1.7.42z" fill="#ffa733"/><path d="m31 57v4h-10a2.006 2.006 0 0 1 -2-2v-2z" fill="#acabb1"/><path d="m30 42.06v4.94h-3v4l-5-3 4.84-6.78z" fill="#00d7df"/><path d="m26.84 41.22-4.84 6.78-4.84-6.78.84-.22v-4.69a11.939 11.939 0 0 0 8 0v4.69z" fill="#ffc477"/><path d="m17.16 41.22 4.84 6.78-5 3v-4h-3v-4.93z" fill="#00d7df"/><path d="m14 42.07-7.99 2.12-.01-.03v-22.16a4 4 0 0 0 4 4h.04a11.976 11.976 0 0 0 7.96 10.31v4.69l-.84.22z" fill="#ffcd00"/><path d="m30 42.07 7.99 2.12.01-.03v-22.16a4 4 0 0 1 -4 4h-.04a11.976 11.976 0 0 1 -7.96 10.31v4.69l.84.22z" fill="#ffcd00"/><path d="m38 22v22.16l-.01.03-3.99-1.06v-17.13a4 4 0 0 0 4-4z" fill="#ddb200"/><path d="m10.04 26h-.04a4 4 0 1 1 0-8v7c0 .34.01.67.04 1z" fill="#ffc477"/><path d="m61 41v20h-30v-20a2.006 2.006 0 0 1 2-2h26a2.006 2.006 0 0 1 2 2z" fill="#c6c5ca"/><path d="m61 41v20h-4v-20a2.006 2.006 0 0 0 -2-2h4a2.006 2.006 0 0 1 2 2z" fill="#898890"/><path d="m16 23a1 1 0 0 1 1 1h2a3 3 0 0 0 -6 0h2a1 1 0 0 1 1-1z"/><path d="m28 23a1 1 0 0 1 1 1h2a3 3 0 0 0 -6 0h2a1 1 0 0 1 1-1z"/><path d="m22 33a3 3 0 0 0 3-3h-2a1 1 0 0 1 -2 0h-2a3 3 0 0 0 3 3z"/><path d="m59 38h-20v-19a17 17 0 0 0 -34 0v24.43l-.79.21a3.018 3.018 0 0 0 -2.21 2.9v14.46a1 1 0 0 0 1 1h58a1 1 0 0 0 1-1v-20a3.009 3.009 0 0 0 -3-3zm-37-34a14.958 14.958 0 0 1 14.95 13.98 5 5 0 0 0 -2.69-.95l-13.18-5.43a6.137 6.137 0 0 0 -1.08-.34v-3.26h-2v3.08a6.864 6.864 0 0 0 -2 .42v-3.5h-2v4.66c-.18.15-.37.29-.54.46l-3.92 3.92a5.034 5.034 0 0 0 -2.49.94 15.012 15.012 0 0 1 14.95-13.98zm15 18a2.994 2.994 0 0 1 -2 2.81v-5.63a3.179 3.179 0 0 1 1.12.69 3.03 3.03 0 0 1 .88 2.13zm-15 24.28-3.28-4.6a1 1 0 0 0 .28-.68v-3.36a12.68 12.68 0 0 0 6 0v3.36a1 1 0 0 0 .28.68zm5.25-3.91 1.75.46v3.17h-2a1 1 0 0 0 -1 1v2.23l-2.56-1.53zm-10.25 3.63h-2v-3.17l1.75-.46 3.81 5.33-2.56 1.53v-2.23a1 1 0 0 0 -1-1zm5-10a11.007 11.007 0 0 1 -11-11v-6.59l3.88-3.87a4.976 4.976 0 0 1 5.44-1.09l12.68 5.22v6.33a11.007 11.007 0 0 1 -11 11zm-14.13-16.12a3.1 3.1 0 0 1 1.13-.7v5.64a3 3 0 0 1 -1.13-4.94zm-.87 6.09a4.958 4.958 0 0 0 2.16.94 13.017 13.017 0 0 0 7.84 10.09v3.23l-10 2.66zm11 31.03v2a3 3 0 0 0 .18 1h-6.18a4 4 0 0 1 -2.4-7.2l-1.2-1.6a5.985 5.985 0 0 0 -.86 8.8h-3.54v-13.46a1.008 1.008 0 0 1 .74-.97l8.26-2.2v3.63a1 1 0 0 0 1 1h2v3a.992.992 0 0 0 .51.87.947.947 0 0 0 .49.13 1 1 0 0 0 .51-.14l3.49-2.09v6.23h-2a1 1 0 0 0 -1 1zm12 3h-9a1 1 0 0 1 -1-1v-1h10zm0-4h-7v-6.23l3.49 2.09a1 1 0 0 0 1.51-.86v-3h2zm0-15v.03l-3-.8v-3.23a13.017 13.017 0 0 0 7.84-10.09 4.736 4.736 0 0 0 2.16-.94v12.03h-4a3.009 3.009 0 0 0 -3 3zm30 19h-28v-19a1 1 0 0 1 1-1h26a1 1 0 0 1 1 1z"/><circle cx="46" cy="50" r="2"/><path d="m35 56h2v2h-2z"/><path d="m39 56h2v2h-2z"/><path d="m43 56h2v2h-2z"/><path d="m47 56h2v2h-2z"/><path d="m51 56h2v2h-2z"/><path d="m55 56h2v2h-2z"/></g></svg>