<svg height="512" viewBox="0 0 64 64" width="512" xmlns="http://www.w3.org/2000/svg"><g id="girl-avatar-woman-laptop-working"><path d="m27 36.31v4.69l13.52 3.6a2.013 2.013 0 0 1 1.48 1.94v14.46h-38v-14.46a2.013 2.013 0 0 1 1.48-1.94l13.52-3.6v-4.69" fill="#ffc477"/><path d="m8 61v-17l-.02-.07 8.02-2.13v7.2h7v12z" fill="#006df0"/><path d="m38 61v-17l.02-.07-8.02-2.13v7.2h-7v12z" fill="#006df0"/><path d="m40.78 29.12a2.978 2.978 0 0 1 0 5.76 3 3 0 0 1 -5.28 2.77 3 3 0 0 1 -5.5-1.65 2.96 2.96 0 0 1 .46-1.59v-.01a11.977 11.977 0 0 0 4.5-8.4h.04a4.039 4.039 0 0 0 2.61-.97 2.561 2.561 0 0 1 .39-.03 2.994 2.994 0 0 1 2.78 4.12z" fill="#ffcd00"/><path d="m39 19v3a3.995 3.995 0 0 0 -4-4v-1h-3.08a18.031 18.031 0 0 1 -5.69-.92l-3.23-1.08-3.23 1.08a18.031 18.031 0 0 1 -5.69.92h-3.08v1a3.995 3.995 0 0 0 -4 4v-3a16 16 0 1 1 32 0z" fill="#ffcd00"/><path d="m37.83 19.17a4 4 0 0 1 -2.83 6.83h-.04c.03-.33.04-.66.04-1v-7a4.025 4.025 0 0 1 2.83 1.17z" fill="#ffc477"/><path d="m35 18v7c0 .34-.01.67-.04 1a11.977 11.977 0 0 1 -4.5 8.4v.01a12.067 12.067 0 0 1 -14.92 0v-.01a11.977 11.977 0 0 1 -4.5-8.4c-.03-.33-.04-.66-.04-1v-8h3.08a18.031 18.031 0 0 0 5.69-.92l3.23-1.08 3.23 1.08a18.031 18.031 0 0 0 5.69.92h3.08z" fill="#ffc477"/><path d="m39 19v3a3.995 3.995 0 0 0 -4-4v-1h-.13a15.94 15.94 0 0 0 -13.89-13.87 15.009 15.009 0 0 1 2.02-.13 15.979 15.979 0 0 1 16 16z" fill="#ddb200"/><path d="m35 17v8c0 .34-.01.67-.04 1a11.977 11.977 0 0 1 -4.5 8.4v.01a12 12 0 0 1 -9.46 2.42 11.082 11.082 0 0 0 2-.52 11.891 11.891 0 0 0 3.46-1.9v-.01a11.977 11.977 0 0 0 4.5-8.4c.03-.33.04-.66.04-1v-8.02c.31.01.61.02.92.02z" fill="#ffa733"/><path d="m31 57v4h-10a2.006 2.006 0 0 1 -2-2v-2z" fill="#acabb1"/><path d="m15.54 34.41a2.96 2.96 0 0 1 .46 1.59 3 3 0 0 1 -5.5 1.65 3 3 0 0 1 -5.28-2.77 2.978 2.978 0 0 1 0-5.76 2.994 2.994 0 0 1 2.78-4.12 2.561 2.561 0 0 1 .39.03 3.978 3.978 0 0 0 1.74.87l.01.01a3.979 3.979 0 0 0 .86.09h.04a11.977 11.977 0 0 0 4.5 8.4z" fill="#ffcd00"/><path d="m11.04 26h-.04a3.979 3.979 0 0 1 -.86-.09l-.01-.01a3.991 3.991 0 0 1 -3.13-3.9 3.995 3.995 0 0 1 4-4v7c0 .34.01.67.04 1z" fill="#ffc477"/><path d="m61 41v20h-30v-20a2.006 2.006 0 0 1 2-2h26a2.006 2.006 0 0 1 2 2z" fill="#c6c5ca"/><path d="m61 41v20h-4v-20a2.006 2.006 0 0 0 -2-2h4a2.006 2.006 0 0 1 2 2z" fill="#898890"/><path d="m40.78 34.88a2.995 2.995 0 0 1 -4.78 3.35 2.94 2.94 0 0 0 1-2.23 2.981 2.981 0 0 0 -.22-1.12 2.978 2.978 0 0 0 0-5.76 2.981 2.981 0 0 0 .22-1.12 2.925 2.925 0 0 0 -.92-2.15 4.121 4.121 0 0 0 1.53-.82 2.561 2.561 0 0 1 .39-.03 2.994 2.994 0 0 1 2.78 4.12 2.978 2.978 0 0 1 0 5.76z" fill="#ddb200"/><path d="m17 21a3 3 0 0 0 -3 3h2a1 1 0 0 1 2 0h2a3 3 0 0 0 -3-3z"/><path d="m29 23a1 1 0 0 1 1 1h2a3 3 0 0 0 -6 0h2a1 1 0 0 1 1-1z"/><path d="m26 30h-2a1 1 0 0 1 -2 0h-2a3 3 0 0 0 6 0z"/><path d="m59 38h-17.56a3.906 3.906 0 0 0 .56-2 3.153 3.153 0 0 0 -.04-.53 3.971 3.971 0 0 0 0-6.94 3.153 3.153 0 0 0 .04-.53 4.032 4.032 0 0 0 -2.57-3.72 5.03 5.03 0 0 0 .57-2.28v-3a17 17 0 0 0 -34 0v3a4.957 4.957 0 0 0 .57 2.27 4.006 4.006 0 0 0 -2.57 3.73 3.153 3.153 0 0 0 .04.53 3.971 3.971 0 0 0 0 6.94 3.153 3.153 0 0 0 -.04.53 4 4 0 0 0 6.5 3.12 3.982 3.982 0 0 0 6.45-2.62c.34.18.69.35 1.05.5v3.23l-12.79 3.41a3.018 3.018 0 0 0 -2.21 2.9v14.46a1 1 0 0 0 1 1h57a1 1 0 0 0 1-1v-20a3.009 3.009 0 0 0 -3-3zm-36-34a15.012 15.012 0 0 1 14.95 13.98 5.134 5.134 0 0 0 -1.95-.88v-.1a1 1 0 0 0 -1-1h-3.08a16.872 16.872 0 0 1 -5.37-.87l-3.23-1.08a1 1 0 0 0 -.64 0l-3.23 1.08a16.872 16.872 0 0 1 -5.37.87h-3.08a1 1 0 0 0 -1 1v.1a5.134 5.134 0 0 0 -1.95.88 15.012 15.012 0 0 1 14.95-13.98zm15 18a2.994 2.994 0 0 1 -2 2.81v-5.63a3.179 3.179 0 0 1 1.12.69 3.03 3.03 0 0 1 .88 2.13zm-29.13-2.12a3.1 3.1 0 0 1 1.13-.7v5.64a3 3 0 0 1 -1.13-4.94zm4.13 18.12a2.021 2.021 0 0 1 -1.67-.9 1.03 1.03 0 0 0 -1.66 0 2 2 0 0 1 -3.52-1.85 1.021 1.021 0 0 0 -.04-.82.993.993 0 0 0 -.63-.52 1.972 1.972 0 0 1 0-3.82.993.993 0 0 0 .63-.52 1.021 1.021 0 0 0 .04-.82 2.006 2.006 0 0 1 -.15-.75 1.977 1.977 0 0 1 2.05-1.99 5.051 5.051 0 0 0 2.11.9 12.969 12.969 0 0 0 4.57 8.11 1.977 1.977 0 0 1 .27.98 2.006 2.006 0 0 1 -2 2zm4 4.57 2.26-.6a1 1 0 0 0 .74-.97v-3.36a12.68 12.68 0 0 0 6 0v3.36a1 1 0 0 0 .74.97l2.26.6v5.43h-12zm-10 17.43h-2v-13.46a1.008 1.008 0 0 1 .74-.97l1.26-.34zm11-3v2a3 3 0 0 0 .18 1h-9.18v-15.3l6-1.6v5.9a1 1 0 0 0 1 1h6v6h-3a1 1 0 0 0 -1 1zm12 3h-9a1 1 0 0 1 -1-1v-1h10zm0-4h-6v-6h6zm.02-15.23-2.02-.54v-3.23c.36-.15.71-.32 1.05-.5a4.006 4.006 0 0 0 1.57 2.7 2.962 2.962 0 0 0 -.6 1.57zm-7.02-4.77a11.007 11.007 0 0 1 -11-11v-7h2.08a18.873 18.873 0 0 0 6.01-.98l2.91-.97 2.91.97a18.873 18.873 0 0 0 6.01.98h2.08v7a11.007 11.007 0 0 1 -11 11zm8 0a1.977 1.977 0 0 1 .27-.98 12.969 12.969 0 0 0 4.57-8.11 4.965 4.965 0 0 0 2.12-.9 1.981 1.981 0 0 1 2.04 1.99 2.006 2.006 0 0 1 -.15.75 1.021 1.021 0 0 0 .04.82.993.993 0 0 0 .63.52 1.972 1.972 0 0 1 0 3.82.993.993 0 0 0 -.63.52 1.021 1.021 0 0 0 -.04.82 2 2 0 0 1 -3.52 1.85 1.03 1.03 0 0 0 -1.66 0 2 2 0 0 1 -3.67-1.1zm29 24h-28v-19a1 1 0 0 1 1-1h26a1 1 0 0 1 1 1z"/><circle cx="46" cy="50" r="2"/><path d="m35 56h2v2h-2z"/><path d="m39 56h2v2h-2z"/><path d="m43 56h2v2h-2z"/><path d="m47 56h2v2h-2z"/><path d="m51 56h2v2h-2z"/><path d="m55 56h2v2h-2z"/></g></svg>