<svg height="512" viewBox="0 0 64 64" width="512" xmlns="http://www.w3.org/2000/svg"><g id="laptop-avatar-man-working-male"><path d="m26 34.31v6.69l13.52 3.6a2.013 2.013 0 0 1 1.48 1.94v14.46h-38v-14.46a2.013 2.013 0 0 1 1.48-1.94l13.52-3.6v-6.69" fill="#ff6243"/><path d="m34 16a4 4 0 1 1 0 8h-.04c.03-.33.04-.66.04-1z" fill="#ffc477"/><path d="m36 6v8h-6a4 4 0 0 1 -4-4v-5a2.006 2.006 0 0 1 2-2h5a3 3 0 0 1 3 3z" fill="#ffcd00"/><path d="m34 14v9c0 .34-.01.67-.04 1a11.976 11.976 0 0 1 -7.96 10.31 12.037 12.037 0 0 1 -12.49-2.82 11.958 11.958 0 0 1 -3.47-7.49c-.03-.33-.04-.66-.04-1v-9h12a4 4 0 0 0 4-4 4 4 0 0 0 4 4z" fill="#ffc477"/><path d="m36 6v8h-4v-8a3 3 0 0 0 -3-3h4a3 3 0 0 1 3 3z" fill="#ddb200"/><path d="m34 14v9c0 .34-.01.67-.04 1a11.976 11.976 0 0 1 -7.96 10.31 11.8 11.8 0 0 1 -4 .69 12 12 0 0 1 -2-.17 11.082 11.082 0 0 0 2-.52 11.976 11.976 0 0 0 7.96-10.31c.03-.33.04-.66.04-1v-9z" fill="#ffa733"/><path d="m31 57v4h-10a2.006 2.006 0 0 1 -2-2v-2z" fill="#acabb1"/><path d="m28 41.53v8.47l-6-4 4-5z" fill="#ebe5dd"/><path d="m26 34.31v6.69l-4 5-4-5v-6.69a11.939 11.939 0 0 0 8 0z" fill="#ffc477"/><path d="m26 5v5a4 4 0 0 1 -4 4h-14v-7a4 4 0 0 1 4-4h12a2.006 2.006 0 0 1 2 2z" fill="#ffcd00"/><path d="m18 41 4 5-6 4v-8.47z" fill="#ebe5dd"/><path d="m10.04 24h-.04a4 4 0 0 1 0-8v7c0 .34.01.67.04 1z" fill="#ffc477"/><path d="m61 41v20h-30v-20a2.006 2.006 0 0 1 2-2h26a2.006 2.006 0 0 1 2 2z" fill="#c6c5ca"/><path d="m61 41v20h-4v-20a2.006 2.006 0 0 0 -2-2h4a2.006 2.006 0 0 1 2 2z" fill="#898890"/><path d="m19 21a3 3 0 0 0 -6 0h2a1 1 0 0 1 2 0z"/><path d="m28 20a1 1 0 0 1 1 1h2a3 3 0 0 0 -6 0h2a1 1 0 0 1 1-1z"/><path d="m27 28h-2c0 .249-1.064 1-3 1s-3-.751-3-1h-2c0 1.71 2.149 3 5 3s5-1.29 5-3z"/><path d="m59 38h-26a3.009 3.009 0 0 0 -3 3v.03l-3-.8v-5.23a13.022 13.022 0 0 0 7.84-10.08 4.982 4.982 0 0 0 4.16-4.92 5.017 5.017 0 0 0 -4-4.9v-.1h1a1 1 0 0 0 1-1v-8a4 4 0 0 0 -4-4h-5a2.974 2.974 0 0 0 -2 .78 2.974 2.974 0 0 0 -2-.78h-12a5 5 0 0 0 -5 5v7a1 1 0 0 0 1 1h1v.1a4.994 4.994 0 0 0 .16 9.82 13.037 13.037 0 0 0 7.84 10.08v5.23l-12.79 3.41a3.018 3.018 0 0 0 -2.21 2.9v14.46a1 1 0 0 0 1 1h58a1 1 0 0 0 1-1v-20a3.009 3.009 0 0 0 -3-3zm-50-15.18a3.179 3.179 0 0 1 -1.12-.69 3 3 0 0 1 1.12-4.95zm28-2.82a3 3 0 0 1 -.87 2.12 2.951 2.951 0 0 1 -1.13.69v-5.63a3.01 3.01 0 0 1 2 2.82zm-10-15a1 1 0 0 1 1-1h5a2.006 2.006 0 0 1 2 2v7h-5a3.009 3.009 0 0 1 -3-3zm-18 8v-6a3.009 3.009 0 0 1 3-3h12a1 1 0 0 1 1 1v5a3.009 3.009 0 0 1 -3 3zm2 10v-8h11a4.994 4.994 0 0 0 4-2.03 4.994 4.994 0 0 0 4 2.03h3v8a11 11 0 0 1 -22 0zm15.37 19.13.63.17v5.83l-3.54-2.36zm-4.37 2.27-3-3.75v-5.01a12.68 12.68 0 0 0 6 0v5.01zm-5-2.1.63-.17 2.91 3.64-3.54 2.36zm13 17.7h-9a1 1 0 0 1 -1-1v-1h10zm0-8h-3v2h3v2h-11a1 1 0 0 0 -1 1v2a3 3 0 0 0 .18 1h-14.18v-13.46a1.017 1.017 0 0 1 .74-.97l10.26-2.74v7.17a.984.984 0 0 0 .53.88.963.963 0 0 0 1.02-.05l5.45-3.63 5.45 3.63a1 1 0 0 0 1.55-.83v-7.17l1 .27zm30 8h-28v-19a1 1 0 0 1 1-1h26a1 1 0 0 1 1 1z"/><circle cx="46" cy="50" r="2"/><path d="m35 56h2v2h-2z"/><path d="m39 56h2v2h-2z"/><path d="m43 56h2v2h-2z"/><path d="m47 56h2v2h-2z"/><path d="m51 56h2v2h-2z"/><path d="m55 56h2v2h-2z"/></g></svg>