<svg height="512" viewBox="0 0 64 64" width="512" xmlns="http://www.w3.org/2000/svg"><g id="laptop-avatar-woman-working-female"><path d="m27 36.31v4.69l13.52 3.6a2.013 2.013 0 0 1 1.48 1.94v14.46h-38v-14.46a2.013 2.013 0 0 1 1.48-1.94l13.52-3.6v-4.69" fill="#fee9ab"/><path d="m40.78 29.12a2.978 2.978 0 0 1 0 5.76 3 3 0 0 1 -5.28 2.77 3 3 0 0 1 -5.5-1.65 2.96 2.96 0 0 1 .46-1.59v-.01a11.977 11.977 0 0 0 4.5-8.4h.04a4.039 4.039 0 0 0 2.61-.97 2.561 2.561 0 0 1 .39-.03 2.994 2.994 0 0 1 2.78 4.12z" fill="#ffcd00"/><path d="m13 15.75-2 1.25v1a3.995 3.995 0 0 0 -4 4 4.431 4.431 0 0 0 .1.9 3.989 3.989 0 0 1 -.41-7.66 3.932 3.932 0 0 1 -.69-2.24 4 4 0 0 1 4-4 4 4 0 0 1 4-4 3.932 3.932 0 0 1 2.24.69 3.964 3.964 0 0 1 6.76-1.31 3.964 3.964 0 0 1 6.76 1.31 3.932 3.932 0 0 1 2.24-.69 4 4 0 0 1 4 4 4 4 0 0 1 4 4 3.932 3.932 0 0 1 -.69 2.24 3.989 3.989 0 0 1 -.41 7.66 4.431 4.431 0 0 0 .1-.9 3.995 3.995 0 0 0 -4-4v-1l-16-5-2 1.25z" fill="#ffcd00"/><path d="m42 19a4 4 0 0 1 -3.1 3.9 4.431 4.431 0 0 0 .1-.9 3.95 3.95 0 0 0 -1.02-2.66 1.884 1.884 0 0 0 .02-.34 3.981 3.981 0 0 0 -2.69-3.76 3.932 3.932 0 0 0 .69-2.24 4 4 0 0 0 -4-4 3.98 3.98 0 0 0 -2-3.46 3.89 3.89 0 0 1 2-.54 4 4 0 0 1 4 4 4 4 0 0 1 4 4 3.932 3.932 0 0 1 -.69 2.24 3.981 3.981 0 0 1 2.69 3.76z" fill="#ddb200"/><path d="m39 22a4.431 4.431 0 0 1 -.1.9 4.009 4.009 0 0 1 -3.9 3.1h-.04c.03-.33.04-.66.04-1v-7a3.995 3.995 0 0 1 4 4z" fill="#ffc477"/><path d="m35 18v7c0 .34-.01.67-.04 1a11.977 11.977 0 0 1 -4.5 8.4v.01a12.067 12.067 0 0 1 -14.92 0v-.01a11.977 11.977 0 0 1 -4.5-8.4c-.03-.33-.04-.66-.04-1v-8l2-1.25 4-2.5 2-1.25 16 5z" fill="#ffc477"/><path d="m31 57v4h-10a2.006 2.006 0 0 1 -2-2v-2z" fill="#acabb1"/><path d="m27 36.31v4.69l-4 7-4-7v-4.69a11.939 11.939 0 0 0 8 0z" fill="#ffc477"/><path d="m19 41 4 7-15.63-3.9z" fill="#a78966"/><path d="m27 41-4 7 15.63-3.9z" fill="#a78966"/><path d="m15.54 34.41a2.96 2.96 0 0 1 .46 1.59 3 3 0 0 1 -5.5 1.65 3 3 0 0 1 -5.28-2.77 2.978 2.978 0 0 1 0-5.76 2.994 2.994 0 0 1 2.78-4.12 2.561 2.561 0 0 1 .39.03 4.039 4.039 0 0 0 2.61.97h.04a11.977 11.977 0 0 0 4.5 8.4z" fill="#ffcd00"/><path d="m11.04 26h-.04a4.009 4.009 0 0 1 -3.9-3.1 4.431 4.431 0 0 1 -.1-.9 3.995 3.995 0 0 1 4-4v7c0 .34.01.67.04 1z" fill="#ffc477"/><path d="m61 41v20h-30v-20a2.006 2.006 0 0 1 2-2h26a2.006 2.006 0 0 1 2 2z" fill="#c6c5ca"/><path d="m61 41v20h-4v-20a2.006 2.006 0 0 0 -2-2h4a2.006 2.006 0 0 1 2 2z" fill="#898890"/><path d="m40.78 34.88a2.995 2.995 0 0 1 -4.78 3.35 2.94 2.94 0 0 0 1-2.23 2.981 2.981 0 0 0 -.22-1.12 2.978 2.978 0 0 0 0-5.76 2.981 2.981 0 0 0 .22-1.12 2.925 2.925 0 0 0 -.92-2.15 4.121 4.121 0 0 0 1.53-.82 2.561 2.561 0 0 1 .39-.03 2.994 2.994 0 0 1 2.78 4.12 2.978 2.978 0 0 1 0 5.76z" fill="#ddb200"/><path d="m17 21a3 3 0 0 0 -3 3h2a1 1 0 0 1 2 0h2a3 3 0 0 0 -3-3z"/><path d="m29 23a1 1 0 0 1 1 1h2a3 3 0 0 0 -6 0h2a1 1 0 0 1 1-1z"/><path d="m26 30h-2a1 1 0 0 1 -2 0h-2a3 3 0 0 0 6 0z"/><path d="m59 38h-17.56a3.906 3.906 0 0 0 .56-2 3.153 3.153 0 0 0 -.04-.53 3.971 3.971 0 0 0 0-6.94 3.153 3.153 0 0 0 .04-.53 4.032 4.032 0 0 0 -2.57-3.72 5.96 5.96 0 0 0 .25-.58 4.979 4.979 0 0 0 .99-8.91 4.9 4.9 0 0 0 .33-1.79 5.021 5.021 0 0 0 -4.08-4.92 5.021 5.021 0 0 0 -4.92-4.08 4.9 4.9 0 0 0 -1.79.33 4.979 4.979 0 0 0 -4.21-2.33 4.92 4.92 0 0 0 -3 1.02 4.92 4.92 0 0 0 -3-1.02 4.979 4.979 0 0 0 -4.21 2.33 4.9 4.9 0 0 0 -1.79-.33 5.021 5.021 0 0 0 -4.92 4.08 5.021 5.021 0 0 0 -4.08 4.92 4.9 4.9 0 0 0 .33 1.79 4.979 4.979 0 0 0 .99 8.91 4.905 4.905 0 0 0 .25.57 4.006 4.006 0 0 0 -2.57 3.73 3.153 3.153 0 0 0 .04.53 3.971 3.971 0 0 0 0 6.94 3.153 3.153 0 0 0 -.04.53 4 4 0 0 0 6.5 3.12 3.982 3.982 0 0 0 6.45-2.62c.34.18.69.35 1.05.5v3.23l-12.79 3.41a3.018 3.018 0 0 0 -2.21 2.9v14.46a1 1 0 0 0 1 1h57a1 1 0 0 0 1-1v-20a3.009 3.009 0 0 0 -3-3zm-52.93-16.71a2.973 2.973 0 0 1 .95-5.1 1.035 1.035 0 0 0 .62-.64.99.99 0 0 0 -.13-.88 2.964 2.964 0 0 1 -.51-1.67 3.009 3.009 0 0 1 3-3 1 1 0 0 0 1-1 3.009 3.009 0 0 1 3-3 2.964 2.964 0 0 1 1.67.51.99.99 0 0 0 .88.13 1.035 1.035 0 0 0 .64-.62 2.968 2.968 0 0 1 2.81-2.02 3.008 3.008 0 0 1 2.25 1.04 1.033 1.033 0 0 0 1.5 0 3.008 3.008 0 0 1 2.25-1.04 2.968 2.968 0 0 1 2.81 2.02 1.035 1.035 0 0 0 .64.62.99.99 0 0 0 .88-.13 2.964 2.964 0 0 1 1.67-.51 3.009 3.009 0 0 1 3 3 1 1 0 0 0 1 1 3.009 3.009 0 0 1 3 3 2.964 2.964 0 0 1 -.51 1.67.99.99 0 0 0 -.13.88 1.035 1.035 0 0 0 .62.64 2.973 2.973 0 0 1 .95 5.1 5.014 5.014 0 0 0 -1.4-2.83 5.068 5.068 0 0 0 -2.53-1.36v-.1a.987.987 0 0 0 -.7-.95l-16-5a1.009 1.009 0 0 0 -.83.1l-.47.3v-2.45h-2v3.7l-2 1.25v-2.95h-2v4.2l-1.53.95a1.012 1.012 0 0 0 -.47.85v.1a4.956 4.956 0 0 0 -3.93 4.19zm31.93.71a2.994 2.994 0 0 1 -2 2.81v-5.63a3.179 3.179 0 0 1 1.12.69 3.03 3.03 0 0 1 .88 2.13zm-28-2.82v5.64a3 3 0 0 1 -1.13-4.94 3.1 3.1 0 0 1 1.13-.7zm3 18.82a2.021 2.021 0 0 1 -1.67-.9 1.03 1.03 0 0 0 -1.66 0 2 2 0 0 1 -3.52-1.85 1.021 1.021 0 0 0 -.04-.82.993.993 0 0 0 -.63-.52 1.972 1.972 0 0 1 0-3.82.993.993 0 0 0 .63-.52 1.021 1.021 0 0 0 .04-.82 2.006 2.006 0 0 1 -.15-.75 1.977 1.977 0 0 1 2.05-1.99 5.051 5.051 0 0 0 2.11.9 12.969 12.969 0 0 0 4.57 8.11 1.977 1.977 0 0 1 .27.98 2.006 2.006 0 0 1 -2 2zm5.51 4.16 2.46 4.3-9.6-2.39zm1.49-1.43v-3.09a12.68 12.68 0 0 0 6 0v3.09l-3 5.25zm-2 16.27v2a3 3 0 0 0 .18 1h-5.18a4 4 0 0 1 0-8v-2a5.99 5.99 0 0 0 -4.46 10h-3.54v-13.46a1.008 1.008 0 0 1 .74-.97l1.64-.44 14.62 3.65v7.22h-3a1 1 0 0 0 -1 1zm12 3h-9a1 1 0 0 1 -1-1v-1h10zm0-4h-6v-7.22l6-1.5zm0-10.78-4.97 1.24 2.46-4.3 2.51.68zm.02-4.45-2.02-.54v-3.23c.36-.15.71-.32 1.05-.5a4.006 4.006 0 0 0 1.57 2.7 2.962 2.962 0 0 0 -.6 1.57zm-7.02-4.77a11.007 11.007 0 0 1 -11-11v-7.45l7.14-4.46 14.86 4.65v7.26a11.007 11.007 0 0 1 -11 11zm8 0a1.977 1.977 0 0 1 .27-.98 12.969 12.969 0 0 0 4.57-8.11 4.965 4.965 0 0 0 2.12-.9 1.975 1.975 0 0 1 2.04 1.99 2.006 2.006 0 0 1 -.15.75 1.021 1.021 0 0 0 .04.82.993.993 0 0 0 .63.52 1.972 1.972 0 0 1 0 3.82.993.993 0 0 0 -.63.52 1.021 1.021 0 0 0 -.04.82 2 2 0 0 1 -3.52 1.85 1.03 1.03 0 0 0 -1.66 0 2 2 0 0 1 -3.67-1.1zm29 24h-28v-19a1 1 0 0 1 1-1h26a1 1 0 0 1 1 1z"/><circle cx="46" cy="50" r="2"/><path d="m35 56h2v2h-2z"/><path d="m39 56h2v2h-2z"/><path d="m43 56h2v2h-2z"/><path d="m47 56h2v2h-2z"/><path d="m51 56h2v2h-2z"/><path d="m55 56h2v2h-2z"/></g></svg>