<svg height="512" viewBox="0 0 64 64" width="512" xmlns="http://www.w3.org/2000/svg"><g id="laptop-man-boy-avatar-user"><path d="m26 36.31v4.69l13.52 3.6a2.013 2.013 0 0 1 1.48 1.94v14.46h-38v-14.46a2.013 2.013 0 0 1 1.48-1.94l13.52-3.6v-4.69" fill="#bdfdff"/><path d="m34 23-6.58-1.2a11.983 11.983 0 0 1 -7.23-4.31l-5.19-6.49-5 7a3.984 3.984 0 0 0 -3 1.36v-1.36a15 15 0 0 1 29.86-2.04 6.994 6.994 0 0 0 2.03 3.93l3.11 3.11-8.06 3.22c.04-.4.06-.81.06-1.22z" fill="#ffcd00"/><path d="m34 23v2c0 .41-.02.82-.06 1.22v.01a12.006 12.006 0 0 1 -7.94 10.08 11.939 11.939 0 0 1 -8 0 11.976 11.976 0 0 1 -7.96-10.31c-.03-.33-.04-.66-.04-1v-7l5-7 5.19 6.49a11.983 11.983 0 0 0 7.23 4.31z" fill="#ffc477"/><path d="m34 24.6 4-1.6-3.11-3.11a6.994 6.994 0 0 1 -2.03-3.93 15.009 15.009 0 0 0 -12.86-12.82 14.6 14.6 0 0 1 2-.14 15.019 15.019 0 0 1 14.86 12.96 6.994 6.994 0 0 0 2.03 3.93l3.11 3.11-8.06 3.22c.04-.4.06-.81.06-1.22z" fill="#ddb200"/><path d="m34 23v2c0 .41-.02.82-.06 1.22v.01a12.006 12.006 0 0 1 -7.94 10.08 11.8 11.8 0 0 1 -4 .69 12 12 0 0 1 -2-.17 11.082 11.082 0 0 0 2-.52 12.006 12.006 0 0 0 7.94-10.08v-.01c.04-.4.06-.81.06-1.22v-2l-6.58-1.2a11.983 11.983 0 0 1 -7.23-4.31l-3.08-3.85 1.89-2.64 5.19 6.49a11.983 11.983 0 0 0 7.23 4.31z" fill="#ffa733"/><path d="m31 57v4h-10a2.006 2.006 0 0 1 -2-2v-2z" fill="#acabb1"/><path d="m26 36.31v4.69a4 4 0 0 1 -8 0v-4.69a11.939 11.939 0 0 0 8 0z" fill="#ffc477"/><path d="m16 51v4l-3 2-3-2v-4z" fill="#00d7df"/><path d="m10.04 26h-.04a4 4 0 0 1 -3-6.64 3.984 3.984 0 0 1 3-1.36v7c0 .34.01.67.04 1z" fill="#ffc477"/><path d="m61 41v20h-30v-20a2.006 2.006 0 0 1 2-2h26a2.006 2.006 0 0 1 2 2z" fill="#c6c5ca"/><path d="m61 41v20h-4v-20a2.006 2.006 0 0 0 -2-2h4a2.006 2.006 0 0 1 2 2z" fill="#898890"/><path d="m19 23a3 3 0 0 0 -6 0h2a1 1 0 0 1 2 0z"/><path d="m21 48h2v2h-2z"/><path d="m21 52h2v2h-2z"/><path d="m16 50h-6a1 1 0 0 0 -1 1v4a1 1 0 0 0 .445.832l3 2a1 1 0 0 0 1.11 0l3-2a1 1 0 0 0 .445-.832v-4a1 1 0 0 0 -1-1zm-1 4.465-2 1.335-2-1.333v-2.467h4z"/><path d="m27 29h-2c0 .249-1.064 1-3 1s-3-.751-3-1h-2c0 1.71 2.149 3 5 3s5-1.29 5-3z"/><path d="m59 38h-26a3.009 3.009 0 0 0 -3 3v.03l-3-.8v-3.23a13.047 13.047 0 0 0 7.84-10.06l7.53-3.01a1.005 1.005 0 0 0 .34-1.64l-3.11-3.11a5.979 5.979 0 0 1 -1.75-3.36 16 16 0 0 0 -31.85 2.18v1.03a4.939 4.939 0 0 0 -1 2.97 4.982 4.982 0 0 0 4.16 4.92 13.037 13.037 0 0 0 7.84 10.08v3.23l-12.79 3.41a3.018 3.018 0 0 0 -2.21 2.9v14.46a1 1 0 0 0 1 1h58a1 1 0 0 0 1-1v-20a3.009 3.009 0 0 0 -3-3zm-50-13.18a3.179 3.179 0 0 1 -1.12-.69 3 3 0 0 1 1.12-4.95zm-.97-7.41a13.991 13.991 0 0 1 27.84-1.31 8.059 8.059 0 0 0 2.31 4.5l2.04 2.03-5.22 2.09v-1.72a.981.981 0 0 0 -.38-.77v-.01l-4.1-3.29a4.75 4.75 0 0 1 -1.22-1.42l-3.43-6.01-1.74 1 3.43 6a7.131 7.131 0 0 0 1.71 2l1.01.81-2.68-.49a11.014 11.014 0 0 1 -6.62-3.95l-5.2-6.49a.948.948 0 0 0 -.81-.38.981.981 0 0 0 -.78.42l-4.74 6.64a4.771 4.771 0 0 0 -1.42.35zm2.97 7.59v-6.68l4.05-5.66 4.36 5.46a13 13 0 0 0 7.83 4.67l5.76 1.04v1.17a11 11 0 0 1 -22 0zm14 12.64v3.36a3 3 0 0 1 -6 0v-3.36a12.68 12.68 0 0 0 6 0zm5 22.36h-9a1 1 0 0 1 -1-1v-1h10zm0-4h-11a1 1 0 0 0 -1 1v2a3 3 0 0 0 .18 1h-14.18v-13.46a1.017 1.017 0 0 1 .74-.97l12.44-3.32a4.973 4.973 0 0 0 9.64 0l3.18.85zm30 4h-28v-19a1 1 0 0 1 1-1h26a1 1 0 0 1 1 1z"/><circle cx="46" cy="50" r="2"/><path d="m35 56h2v2h-2z"/><path d="m39 56h2v2h-2z"/><path d="m43 56h2v2h-2z"/><path d="m47 56h2v2h-2z"/><path d="m51 56h2v2h-2z"/><path d="m55 56h2v2h-2z"/></g></svg>