<svg height="512" viewBox="0 0 64 64" width="512" xmlns="http://www.w3.org/2000/svg"><g id="laptop-wman-girl-avatar-user"><path d="m26 36.31v4.69l13.52 3.6a2.013 2.013 0 0 1 1.48 1.94v14.46h-38v-14.46a2.013 2.013 0 0 1 1.48-1.94l13.52-3.6v-4.69" fill="#57565c"/><path d="m37 19.36a4 4 0 0 1 -3 6.64h-.04c.03-.33.04-.66.04-1v-7a4.025 4.025 0 0 1 2.83 1.17 1.537 1.537 0 0 1 .17.19z" fill="#ffc477"/><path d="m37 13.42v5.94a1.537 1.537 0 0 0 -.17-.19 4.025 4.025 0 0 0 -2.83-1.17l-7-5-17 5a4.025 4.025 0 0 0 -2.83 1.17 1.537 1.537 0 0 0 -.17.19v-5.94a10 10 0 0 1 11.32-9.91l3.68.49 3.68-.49a10 10 0 0 1 11.32 9.91z" fill="#ffcd00"/><path d="m34 18v7c0 .34-.01.67-.04 1a11.976 11.976 0 0 1 -7.96 10.31 11.939 11.939 0 0 1 -8 0 11.976 11.976 0 0 1 -7.96-10.31c-.03-.33-.04-.66-.04-1v-7l17-5z" fill="#ffc477"/><path d="m37 13.42v5.94a1.537 1.537 0 0 0 -.17-.19 4.025 4.025 0 0 0 -2.83-1.17l-1-.71v-3.87a10.01 10.01 0 0 0 -8.06-9.81l.74-.1a10 10 0 0 1 11.32 9.91z" fill="#ddb200"/><path d="m34 18v7c0 .34-.01.67-.04 1a11.976 11.976 0 0 1 -7.96 10.31 11.8 11.8 0 0 1 -4 .69 12 12 0 0 1 -2-.17 11.082 11.082 0 0 0 2-.52 11.976 11.976 0 0 0 7.96-10.31c.03-.33.04-.66.04-1v-7l-5.83-4.17 2.83-.83z" fill="#ffa733"/><path d="m31 57v4h-10a2.006 2.006 0 0 1 -2-2v-2z" fill="#acabb1"/><path d="m32.92 42.84c-.65 3.47-5.29 6.16-10.92 6.16s-10.27-2.69-10.92-6.16l6.92-1.84v-4.69a11.939 11.939 0 0 0 8 0v4.69z" fill="#ffc477"/><path d="m18 36.31v4.69l-6.92 1.84-4.04 1.08-.01-.03-.03-19.25a3.984 3.984 0 0 0 3 1.36h.04a11.976 11.976 0 0 0 7.96 10.31z" fill="#ffcd00"/><path d="m26 36.31v4.69l6.92 1.84 4.04 1.08.01-.03.03-19.25a3.984 3.984 0 0 1 -3 1.36h-.04a11.976 11.976 0 0 1 -7.96 10.31z" fill="#ffcd00"/><path d="m37 24.64-.03 19.25-.01.03-3.99-1.07.02-13.04a11.81 11.81 0 0 0 .97-3.81h.04a3.984 3.984 0 0 0 3-1.36z" fill="#ddb200"/><path d="m10.04 26h-.04a4 4 0 0 1 -3-6.64 1.537 1.537 0 0 1 .17-.19 4.025 4.025 0 0 1 2.83-1.17v7c0 .34.01.67.04 1z" fill="#ffc477"/><path d="m61 41v20h-30v-20a2.006 2.006 0 0 1 2-2h26a2.006 2.006 0 0 1 2 2z" fill="#c6c5ca"/><path d="m61 41v20h-4v-20a2.006 2.006 0 0 0 -2-2h4a2.006 2.006 0 0 1 2 2z" fill="#898890"/><path d="m16 21a3 3 0 0 0 -3 3h2a1 1 0 0 1 2 0h2a3 3 0 0 0 -3-3z"/><path d="m28 21a3 3 0 0 0 -3 3h2a1 1 0 0 1 2 0h2a3 3 0 0 0 -3-3z"/><path d="m22 31a1 1 0 0 1 -1-1h-2a3 3 0 0 0 6 0h-2a1 1 0 0 1 -1 1z"/><path d="m59 38h-20.98l-.02-13.03a4.91 4.91 0 0 0 0-5.94v-5.61a10.984 10.984 0 0 0 -12.45-10.9l-3.55.47-3.55-.47a10.984 10.984 0 0 0 -12.45 10.9v5.61a4.91 4.91 0 0 0 0 5.94l.03 18.18-1.82.49a3.018 3.018 0 0 0 -2.21 2.9v14.46a1 1 0 0 0 1 1h58a1 1 0 0 0 1-1v-20a3.009 3.009 0 0 0 -3-3zm-22-16a2.994 2.994 0 0 1 -2 2.81v-5.63a3.179 3.179 0 0 1 1.12.69 3.03 3.03 0 0 1 .88 2.13zm-29-8.58a9 9 0 0 1 10.19-8.92l3.68.49a1.13 1.13 0 0 0 .26 0l3.68-.49a9 9 0 0 1 10.19 8.92v4.01a4.748 4.748 0 0 0 -1.63-.39l-6.79-4.85a1.015 1.015 0 0 0 -.86-.15l-16.93 4.98a4.928 4.928 0 0 0 -1.79.41zm3 11.58v-6.25l15.81-4.65 6.19 4.41v6.49a11 11 0 0 1 -22 0zm6 12v3.23l-8.97 2.39-.03-16.05a5.008 5.008 0 0 0 1.16.34 13.017 13.017 0 0 0 7.84 10.09zm-9.13-17.12a3.1 3.1 0 0 1 1.13-.7v5.64a3 3 0 0 1 -1.13-4.94zm22.13 40.12h-9a1 1 0 0 1 -1-1v-1h10zm0-4h-11a1 1 0 0 0 -1 1v2a3 3 0 0 0 .18 1h-6.18a4 4 0 0 1 0-8v-2a5.99 5.99 0 0 0 -4.46 10h-3.54v-13.46a1.008 1.008 0 0 1 .74-.97l5.67-1.51c1.36 3.45 6.09 5.94 11.59 5.94a15.909 15.909 0 0 0 8-2.03zm0-10.46a12.966 12.966 0 0 1 -8 2.46c-4.51 0-8.48-1.9-9.64-4.46l5.9-1.57a1 1 0 0 0 .74-.97v-3.36a12.68 12.68 0 0 0 6 0v3.36a1 1 0 0 0 .74.97l4.26 1.13zm0-4.54v.03l-3-.8v-3.23a13.017 13.017 0 0 0 7.84-10.09 4.094 4.094 0 0 0 1.16-.34l.02 11.43h-3.02a3.009 3.009 0 0 0 -3 3zm30 19h-28v-19a1 1 0 0 1 1-1h26a1 1 0 0 1 1 1z"/><circle cx="46" cy="50" r="2"/><path d="m35 56h2v2h-2z"/><path d="m39 56h2v2h-2z"/><path d="m43 56h2v2h-2z"/><path d="m47 56h2v2h-2z"/><path d="m51 56h2v2h-2z"/><path d="m55 56h2v2h-2z"/></g></svg>