<svg height="512" viewBox="0 0 64 64" width="512" xmlns="http://www.w3.org/2000/svg"><g id="man-boy-avatar-male-laptop"><path d="m26 36.31v4.69l13.52 3.6a2.013 2.013 0 0 1 1.48 1.94v14.46h-38v-14.46a2.013 2.013 0 0 1 1.48-1.94l13.52-3.6v-4.69" fill="#ff3051"/><path d="m14 61v-16a15 15 0 0 0 8 2 15 15 0 0 0 8-2v16z" fill="#c0ab91"/><path d="m14 42.07v18.93l-6-5 5-4-5-2 4.75-7.6z" fill="#cd2a00"/><path d="m31 52 5 4-6 5v-18.93l1.25.33 4.75 7.6z" fill="#cd2a00"/><path d="m34 18a4 4 0 1 1 0 8h-.04c.03-.33.04-.66.04-1z" fill="#ffc477"/><path d="m34 18v7c0 .34-.01.67-.04 1a11.976 11.976 0 0 1 -7.96 10.31 11.939 11.939 0 0 1 -8 0 11.976 11.976 0 0 1 -7.96-10.31c-.03-.33-.04-.66-.04-1v-7h3a1 1 0 0 0 1-1 2.015 2.015 0 0 1 2-2h12a2.006 2.006 0 0 1 2 2 1 1 0 0 0 1 1z" fill="#ffc477"/><path d="m34 14.59v3.41h-3a1 1 0 0 1 -1-1 2.006 2.006 0 0 0 -2-2h-12a2.015 2.015 0 0 0 -2 2 1 1 0 0 1 -1 1h-3v-3.41a8.01 8.01 0 0 1 3.97-6.91l8.03-4.68 8.03 4.68a8.01 8.01 0 0 1 3.97 6.91z" fill="#ffcd00"/><path d="m34 18v7c0 .34-.01.67-.04 1a11.976 11.976 0 0 1 -7.96 10.31 11.8 11.8 0 0 1 -4 .69 12 12 0 0 1 -2-.17 11.082 11.082 0 0 0 2-.52 11.976 11.976 0 0 0 7.96-10.31c.03-.33.04-.66.04-1v-7h-3a1 1 0 0 1 -1-1 2.006 2.006 0 0 0 -2-2h4a2.006 2.006 0 0 1 2 2 1 1 0 0 0 1 1z" fill="#ffa733"/><path d="m34 14.59v3.41h-3a1 1 0 0 1 -1-1v-2.41a8.01 8.01 0 0 0 -3.97-6.91l-6.03-3.51 2-1.17 8.03 4.68a8.01 8.01 0 0 1 3.97 6.91z" fill="#ddb200"/><path d="m31 57v4h-10a2.006 2.006 0 0 1 -2-2v-2z" fill="#acabb1"/><path d="m30 42.06v2.94a15 15 0 0 1 -8 2 15 15 0 0 1 -8-2v-2.93l4-1.07v-4.69a11.939 11.939 0 0 0 8 0v4.69z" fill="#ffc477"/><path d="m10.04 26h-.04a4 4 0 0 1 0-8v7c0 .34.01.67.04 1z" fill="#ffc477"/><path d="m61 41v20h-30v-20a2.006 2.006 0 0 1 2-2h26a2.006 2.006 0 0 1 2 2z" fill="#c6c5ca"/><path d="m61 41v20h-4v-20a2.006 2.006 0 0 0 -2-2h4a2.006 2.006 0 0 1 2 2z" fill="#898890"/><path d="m19 23a3 3 0 0 0 -6 0h2a1 1 0 0 1 2 0z"/><path d="m28 22a1 1 0 0 1 1 1h2a3 3 0 0 0 -6 0h2a1 1 0 0 1 1-1z"/><path d="m27 29h-2c0 .249-1.064 1-3 1s-3-.751-3-1h-2c0 1.71 2.149 3 5 3s5-1.29 5-3z"/><path d="m59 38h-26a3.009 3.009 0 0 0 -3 3v.03l-3-.8v-3.23a13.022 13.022 0 0 0 7.84-10.08 4.982 4.982 0 0 0 4.16-4.92 5.017 5.017 0 0 0 -4-4.9v-2.51a9.031 9.031 0 0 0 -4.47-7.77l-8.03-4.68a.948.948 0 0 0 -1 0l-8.03 4.68a9.031 9.031 0 0 0 -4.47 7.77v2.51a4.994 4.994 0 0 0 .16 9.82 13.037 13.037 0 0 0 7.84 10.08v3.23l-12.79 3.41a3.018 3.018 0 0 0 -2.21 2.9v14.46a1 1 0 0 0 1 1h58a1 1 0 0 0 1-1v-20a3.009 3.009 0 0 0 -3-3zm-24-18.82a3 3 0 0 1 1.13 4.94 2.951 2.951 0 0 1 -1.13.69zm-26 5.64a3.179 3.179 0 0 1 -1.12-.69 3 3 0 0 1 1.12-4.95zm2-10.23a7.028 7.028 0 0 1 3.47-6.04l7.53-4.39 7.53 4.39a7.028 7.028 0 0 1 3.47 6.04v2.41h-2a3.009 3.009 0 0 0 -3-3h-12a3.009 3.009 0 0 0 -3 3h-2zm0 10.41v-6h2a2.006 2.006 0 0 0 2-2 1 1 0 0 1 1-1h12a1 1 0 0 1 1 1 2.006 2.006 0 0 0 2 2h2v6a11 11 0 0 1 -22 0zm4 17.83 3.26-.86a1 1 0 0 0 .74-.97v-3.36a12.68 12.68 0 0 0 6 0v3.36a1 1 0 0 0 .74.97l3.26.86v1.6a14.727 14.727 0 0 1 -7 1.57 14.727 14.727 0 0 1 -7-1.57zm-11 17.17v-13.46a1.017 1.017 0 0 1 .74-.97l5.82-1.55-3.41 5.45a1.032 1.032 0 0 0 -.1.84.99.99 0 0 0 .58.62l3.41 1.36-3.66 2.93a.981.981 0 0 0 -.38.77 1.013 1.013 0 0 0 .36.78l3.88 3.23zm9-1.14-3.42-2.84 3.42-2.74zm0-7.94-3.52-1.4 3.52-5.64zm5 6.08v2a3 3 0 0 0 .18 1h-3.18v-13.33a17.758 17.758 0 0 0 7 1.33 17.758 17.758 0 0 0 7-1.33v9.33h-10a1 1 0 0 0 -1 1zm12 3h-9a1 1 0 0 1 -1-1v-1h10zm30 0h-28v-19a1 1 0 0 1 1-1h26a1 1 0 0 1 1 1z"/><circle cx="46" cy="50" r="2"/><path d="m35 56h2v2h-2z"/><path d="m39 56h2v2h-2z"/><path d="m43 56h2v2h-2z"/><path d="m47 56h2v2h-2z"/><path d="m51 56h2v2h-2z"/><path d="m55 56h2v2h-2z"/></g></svg>