<svg height="512" viewBox="0 0 64 64" width="512" xmlns="http://www.w3.org/2000/svg"><g id="man-boy-avatar-working-male"><path d="m26 36.31v4.69l13.52 3.6a2.013 2.013 0 0 1 1.48 1.94v14.46h-38v-14.46a2.013 2.013 0 0 1 1.48-1.94l13.52-3.6v-4.69" fill="#933ec5"/><path d="m14.42 41.94-2.42 8.06 7 2-5 4 8 5-3-9-3.45-10.36" fill="#6d2c93"/><path d="m29.58 41.94 2.42 8.06-7 2 5 4-8 5 3-9 3.45-10.36" fill="#6d2c93"/><path d="m28.45 41.65-6.45 19.35-6.45-19.35 2.45-.65a3 3 0 0 0 3 3h2a3 3 0 0 0 3-3z" fill="#e0e0e2"/><path d="m34 18a4 4 0 1 1 0 8h-.04c.03-.33.04-.66.04-1z" fill="#ffc477"/><path d="m34 18v7c0 .34-.01.67-.04 1a11.976 11.976 0 0 1 -7.96 10.31 12.037 12.037 0 0 1 -12.49-2.82 11.958 11.958 0 0 1 -3.47-7.49c-.03-.33-.04-.66-.04-1v-7h2a2.006 2.006 0 0 0 2-2 2.015 2.015 0 0 1 2-2h2a4 4 0 0 0 4-4 4 4 0 0 0 4 4h2a2.015 2.015 0 0 1 2 2 2.006 2.006 0 0 0 2 2z" fill="#ffc477"/><path d="m34 11v7h-2a2.006 2.006 0 0 1 -2-2 2.015 2.015 0 0 0 -2-2h-2a4 4 0 0 1 -4-4v-3a3.995 3.995 0 0 1 4-4 8 8 0 0 1 8 8z" fill="#ffcd00"/><path d="m34 18v7c0 .34-.01.67-.04 1a11.976 11.976 0 0 1 -7.96 10.31 11.8 11.8 0 0 1 -4 .69 12 12 0 0 1 -2-.17 11.082 11.082 0 0 0 2-.52 11.976 11.976 0 0 0 7.96-10.31c.03-.33.04-.66.04-1v-7h-2a2.006 2.006 0 0 1 -2-2 2.015 2.015 0 0 0 -2-2h-2a3.989 3.989 0 0 1 -2-.54 3.98 3.98 0 0 0 2-3.46 4 4 0 0 0 4 4h2a2.015 2.015 0 0 1 2 2 2.006 2.006 0 0 0 2 2z" fill="#ffa733"/><path d="m34 11v7h-2a2.006 2.006 0 0 1 -2-2v-5a8 8 0 0 0 -5.63-7.64 3.738 3.738 0 0 1 1.63-.36 8 8 0 0 1 8 8z" fill="#ddb200"/><path d="m31 57v4h-10a1.993 1.993 0 0 1 -1.99-1.87.57.57 0 0 1 -.01-.13v-2z" fill="#acabb1"/><path d="m26 36.31v4.69a3 3 0 0 1 -3 3h-2a3 3 0 0 1 -3-3v-4.69a11.939 11.939 0 0 0 8 0z" fill="#ffc477"/><path d="m22 7v3a4 4 0 0 1 -4 4h-2a2.015 2.015 0 0 0 -2 2 2.006 2.006 0 0 1 -2 2h-2v-7a8 8 0 0 1 8-8 3.995 3.995 0 0 1 4 4z" fill="#ffcd00"/><path d="m10.04 26h-.04a4 4 0 0 1 0-8v7c0 .34.01.67.04 1z" fill="#ffc477"/><path d="m61 41v20h-30v-20a2.006 2.006 0 0 1 2-2h26a2.006 2.006 0 0 1 2 2z" fill="#c6c5ca"/><path d="m61 41v20h-4v-20a2.006 2.006 0 0 0 -2-2h4a2.006 2.006 0 0 1 2 2z" fill="#898890"/><path d="m19 23a3 3 0 0 0 -6 0h2a1 1 0 0 1 2 0z"/><path d="m28 22a1 1 0 0 1 1 1h2a3 3 0 0 0 -6 0h2a1 1 0 0 1 1-1z"/><path d="m27 29h-2c0 .249-1.064 1-3 1s-3-.751-3-1h-2c0 1.71 2.149 3 5 3s5-1.29 5-3z"/><path d="m59 38h-26a3.009 3.009 0 0 0 -3 3v.03l-3-.8v-3.23a13.022 13.022 0 0 0 7.84-10.08 4.982 4.982 0 0 0 4.16-4.92 5.017 5.017 0 0 0 -4-4.9v-6.1a9.014 9.014 0 0 0 -9-9 5.013 5.013 0 0 0 -3.54 1.47 4.886 4.886 0 0 0 -.46.56 5.079 5.079 0 0 0 -.47-.57 5.005 5.005 0 0 0 -3.53-1.46 9.014 9.014 0 0 0 -9 9v6.1a4.994 4.994 0 0 0 .16 9.82 13.037 13.037 0 0 0 7.84 10.08v3.23l-12.79 3.41a3.018 3.018 0 0 0 -2.21 2.9v14.46a1 1 0 0 0 1 1h58a1 1 0 0 0 1-1v-20a3.009 3.009 0 0 0 -3-3zm-24-18.82a3 3 0 0 1 1.13 4.94 2.951 2.951 0 0 1 -1.13.69zm-26 5.64a3.179 3.179 0 0 1 -1.12-.69 3 3 0 0 1 1.12-4.95zm14-17.82a2.988 2.988 0 0 1 3-3 7.008 7.008 0 0 1 7 7v6h-1a1 1 0 0 1 -1-1 3.009 3.009 0 0 0 -3-3h-2a3.009 3.009 0 0 1 -3-3zm-12 4a7.008 7.008 0 0 1 7-7 2.988 2.988 0 0 1 3 3v3a3.009 3.009 0 0 1 -3 3h-2a3.009 3.009 0 0 0 -3 3 1 1 0 0 1 -1 1h-1zm0 14v-6h1a3.009 3.009 0 0 0 3-3 1 1 0 0 1 1-1h2a4.994 4.994 0 0 0 4-2.03 4.994 4.994 0 0 0 4 2.03h2a1 1 0 0 1 1 1 3.009 3.009 0 0 0 3 3h1v6a11 11 0 0 1 -22 0zm14 12.64v3.36a2.006 2.006 0 0 1 -2 2h-2a2.006 2.006 0 0 1 -2-2v-3.36a12.68 12.68 0 0 0 6 0zm-7.78 4.6a3.978 3.978 0 0 0 3.78 2.76h2a3.978 3.978 0 0 0 3.78-2.76l.38.1-4.55 13.66h-1.22l-4.55-13.66zm8.27 11.43 2.78 2.23-.16.1h-3.39zm-10.44-10.36 2.41 7.21-4.21-1.2zm-11.05 16.69v-13.46a1.017 1.017 0 0 1 .74-.97l8.2-2.19-1.9 6.33a.982.982 0 0 0 .08.77 1.013 1.013 0 0 0 .61.48l5.13 1.47-3.48 2.79a.976.976 0 0 0 -.38.84 1.021 1.021 0 0 0 .47.79l4.63 2.89c.03.09.05.18.08.26zm15-4a1 1 0 0 0 -1 1v.32l-2.27-1.42 2.78-2.23.77 2.33zm11 4h-9a1 1 0 0 1 -1-1v-1h10zm0-5.28-2.86-2.29 2.86-.82zm0-5.19-3.46.99 2.41-7.21 1.05 3.51zm30 10.47h-28v-19a1 1 0 0 1 1-1h26a1 1 0 0 1 1 1z"/><circle cx="46" cy="50" r="2"/><path d="m35 56h2v2h-2z"/><path d="m39 56h2v2h-2z"/><path d="m43 56h2v2h-2z"/><path d="m47 56h2v2h-2z"/><path d="m51 56h2v2h-2z"/><path d="m55 56h2v2h-2z"/></g></svg>