<svg height="512" viewBox="0 0 64 64" width="512" xmlns="http://www.w3.org/2000/svg"><g id="man-boy-working-user-laptop"><path d="m26 36.31v4.69l13.52 3.6a2.013 2.013 0 0 1 1.48 1.94v14.46h-38v-14.46a2.013 2.013 0 0 1 1.48-1.94l13.52-3.6v-4.69" fill="#fee9ab"/><path d="m31 42.33v1.57l-9 17.1-9.72-18.48 5.72-1.52v2a4 4 0 1 0 8 0v-2z" fill="#a78966"/><path d="m31 57v4h-10a2.006 2.006 0 0 1 -2-2v-2z" fill="#acabb1"/><path d="m26 41v2a4 4 0 0 1 -8 0v-6.69a11.939 11.939 0 0 0 8 0z" fill="#ffc477"/><path d="m61 41v20h-30v-20a2.006 2.006 0 0 1 2-2h26a2.006 2.006 0 0 1 2 2z" fill="#c6c5ca"/><path d="m61 41v20h-4v-20a2.006 2.006 0 0 0 -2-2h4a2.006 2.006 0 0 1 2 2z" fill="#898890"/><path d="m37 19.36a4 4 0 0 1 -3 6.64h-.04c.03-.33.04-.66.04-1v-7a3.984 3.984 0 0 1 3 1.36z" fill="#ffc477"/><path d="m34 18h-4.47a8 8 0 0 1 -6.86-3.88l-.67-1.12-.67 1.12a8 8 0 0 1 -6.86 3.88h-4.47a3.984 3.984 0 0 0 -3 1.36v-1.36a15 15 0 0 1 30 0v1.36a3.984 3.984 0 0 0 -3-1.36z" fill="#ffcd00"/><path d="m34 18v7c0 .34-.01.67-.04 1a11.976 11.976 0 0 1 -7.96 10.31 11.939 11.939 0 0 1 -8 0 11.976 11.976 0 0 1 -7.96-10.31c-.03-.33-.04-.66-.04-1v-7h4.47a8 8 0 0 0 6.86-3.88l.67-1.12.67 1.12a8 8 0 0 0 6.86 3.88z" fill="#ffc477"/><path d="m37 18v1.36a3.984 3.984 0 0 0 -3-1.36h-1a15.016 15.016 0 0 0 -13-14.86 14.6 14.6 0 0 1 2-.14 15.023 15.023 0 0 1 15 15z" fill="#ddb200"/><path d="m34 18v7c0 .34-.01.67-.04 1a11.976 11.976 0 0 1 -7.96 10.31 11.8 11.8 0 0 1 -4 .69 12 12 0 0 1 -2-.17 11.082 11.082 0 0 0 2-.52 11.976 11.976 0 0 0 7.96-10.31c.03-.33.04-.66.04-1v-7z" fill="#ffa733"/><path d="m10.04 26h-.04a4 4 0 0 1 -3-6.64 3.984 3.984 0 0 1 3-1.36v7c0 .34.01.67.04 1z" fill="#ffc477"/><path d="m19 23a3 3 0 0 0 -6 0h2a1 1 0 0 1 2 0z"/><path d="m28 22a1 1 0 0 1 1 1h2a3 3 0 0 0 -6 0h2a1 1 0 0 1 1-1z"/><path d="m27 29h-2c0 .249-1.064 1-3 1s-3-.751-3-1h-2c0 1.71 2.149 3 5 3s5-1.29 5-3z"/><path d="m59 38h-26a3.009 3.009 0 0 0 -3 3v.03l-3-.8v-3.23a13.022 13.022 0 0 0 7.84-10.08 4.967 4.967 0 0 0 3.16-7.89v-1.03a16 16 0 0 0 -32 0v1.03a4.939 4.939 0 0 0 -1 2.97 4.982 4.982 0 0 0 4.16 4.92 13.037 13.037 0 0 0 7.84 10.08v3.23l-12.79 3.41a3.018 3.018 0 0 0 -2.21 2.9v14.46a1 1 0 0 0 1 1h58a1 1 0 0 0 1-1v-20a3.009 3.009 0 0 0 -3-3zm-22-16a3 3 0 0 1 -.87 2.12 2.951 2.951 0 0 1 -1.13.69v-5.63a3.01 3.01 0 0 1 2 2.82zm-28 2.82a3.179 3.179 0 0 1 -1.12-.69 3 3 0 0 1 1.12-4.95zm-.97-7.41a13.973 13.973 0 0 1 23.86-9.3 13.808 13.808 0 0 1 4.08 9.3 4.977 4.977 0 0 0 -1.64-.38l-3.27-1.96a7.055 7.055 0 0 1 -2.23-2.12l-3-4.5-1.66 1.1 3 4.51a8.958 8.958 0 0 0 2.86 2.72l.36.22h-.86a7.008 7.008 0 0 1 -6-3.4l-.67-1.11a1.037 1.037 0 0 0 -1.72 0l-.67 1.11a7.008 7.008 0 0 1 -6 3.4h-.86l.36-.22a8.958 8.958 0 0 0 2.86-2.72l3-4.51-1.66-1.1-3 4.5a7.055 7.055 0 0 1 -2.23 2.12l-3.27 1.96a4.977 4.977 0 0 0 -1.64.38zm2.97 7.59v-6h3.47a9.039 9.039 0 0 0 7.53-4.07 9.039 9.039 0 0 0 7.53 4.07h3.47v6a11 11 0 0 1 -22 0zm14 12.64v5.36a3 3 0 0 1 -6 0v-5.36a12.68 12.68 0 0 0 6 0zm-6.82 22.36h-14.18v-13.46a1.017 1.017 0 0 1 .74-.97l7.02-1.87 6.61 12.54a.983.983 0 0 0 -.37.76v2a3 3 0 0 0 .18 1zm11.82 0h-9a1 1 0 0 1 -1-1v-1h10zm0-4h-4.24l4.24-8.06zm0-12.35-6.5 12.35h-3l-6.75-12.83 3.25-.87v.7a5 5 0 0 0 10 0v-.7l3 .8zm30 16.35h-28v-19a1 1 0 0 1 1-1h26a1 1 0 0 1 1 1z"/><circle cx="46" cy="50" r="2"/><path d="m35 56h2v2h-2z"/><path d="m39 56h2v2h-2z"/><path d="m43 56h2v2h-2z"/><path d="m47 56h2v2h-2z"/><path d="m51 56h2v2h-2z"/><path d="m55 56h2v2h-2z"/></g></svg>