<svg height="512" viewBox="0 0 64 64" width="512" xmlns="http://www.w3.org/2000/svg"><g id="man-laptop-user-working-business_man" data-name="man-laptop-user-working-business man"><path d="m26 36.31v4.69l13.52 3.6a2.013 2.013 0 0 1 1.48 1.94v14.46h-38v-14.46a2.013 2.013 0 0 1 1.48-1.94l13.52-3.6v-4.69" fill="#006df0"/><path d="m31 42.33v2.39l-4.53 12.28-1.47 4-1-10v-3.67l4 2.67v-8.47z" fill="#bddbff"/><path d="m28 41.53v8.47l-4-2.67-2-1.33 4-5z" fill="#898890"/><path d="m26 36.31v4.69l-4 5-4-5v-4.69a11.939 11.939 0 0 0 8 0z" fill="#ffc477"/><path d="m24 51 1 10h-6l1-10z" fill="#898890"/><path d="m24 47.33v3.67h-4v-3.67l2-1.33z" fill="#57565c"/><path d="m18 41 4 5-2 1.33-4 2.67v-8.47z" fill="#898890"/><path d="m19 61-6.8-18.45 3.8-1.02v8.47l4-2.67v3.67z" fill="#bddbff"/><path d="m12.2 42.55 6.8 18.45-9-5 4-4-4-2 1.85-7.36z" fill="#004fac"/><path d="m31.8 42.55-6.8 18.45 9-5-4-4 4-2-1.85-7.36z" fill="#004fac"/><path d="m37 19.36a4 4 0 0 1 -3 6.64h-.04c.03-.33.04-.66.04-1v-7a3.984 3.984 0 0 1 3 1.36z" fill="#ffc477"/><path d="m37 18v1.36a3.984 3.984 0 0 0 -3-1.36l-5-7-5.28 3.96a12.007 12.007 0 0 1 -6.11 2.35l-7.61.69a3.984 3.984 0 0 0 -3 1.36v-1.36a15 15 0 0 1 30 0z" fill="#ffcd00"/><path d="m34 18v7c0 .34-.01.67-.04 1a11.976 11.976 0 0 1 -7.96 10.31 11.939 11.939 0 0 1 -8 0 11.976 11.976 0 0 1 -7.96-10.31c-.03-.33-.04-.66-.04-1v-7l7.61-.69a12.007 12.007 0 0 0 6.11-2.35l5.28-3.96z" fill="#ffc477"/><path d="m37 18v1.36a3.984 3.984 0 0 0 -3-1.36l-1.08-1.51a15.011 15.011 0 0 0 -12.92-13.35 14.6 14.6 0 0 1 2-.14 15.023 15.023 0 0 1 15 15z" fill="#ddb200"/><path d="m34 18v7c0 .34-.01.67-.04 1a11.976 11.976 0 0 1 -7.96 10.31 11.8 11.8 0 0 1 -4 .69 12 12 0 0 1 -2-.17 11.082 11.082 0 0 0 2-.52 11.976 11.976 0 0 0 7.96-10.31c.03-.33.04-.66.04-1v-7l-3.6-5.05 2.6-1.95z" fill="#ffa733"/><path d="m31 57v4h-10a2.006 2.006 0 0 1 -2-2v-2z" fill="#acabb1"/><path d="m10.04 26h-.04a4 4 0 0 1 -3-6.64 3.984 3.984 0 0 1 3-1.36v7c0 .34.01.67.04 1z" fill="#ffc477"/><path d="m61 41v20h-30v-20a2.006 2.006 0 0 1 2-2h26a2.006 2.006 0 0 1 2 2z" fill="#c6c5ca"/><path d="m61 41v20h-4v-20a2.006 2.006 0 0 0 -2-2h4a2.006 2.006 0 0 1 2 2z" fill="#898890"/><path d="m19 23a3 3 0 0 0 -6 0h2a1 1 0 0 1 2 0z"/><path d="m28 22a1 1 0 0 1 1 1h2a3 3 0 0 0 -6 0h2a1 1 0 0 1 1-1z"/><path d="m27 29h-2c0 .249-1.064 1-3 1s-3-.751-3-1h-2c0 1.71 2.149 3 5 3s5-1.29 5-3z"/><path d="m59 38h-26a3.009 3.009 0 0 0 -3 3v.03l-3-.8v-3.23a13.022 13.022 0 0 0 7.84-10.08 4.967 4.967 0 0 0 3.16-7.89v-1.03a16 16 0 0 0 -32 0v1.03a4.939 4.939 0 0 0 -1 2.97 4.982 4.982 0 0 0 4.16 4.92 13.037 13.037 0 0 0 7.84 10.08v3.23l-12.79 3.41a3.018 3.018 0 0 0 -2.21 2.9v14.46a1 1 0 0 0 1 1h58a1 1 0 0 0 1-1v-20a3.009 3.009 0 0 0 -3-3zm-31.55 12.83a1.738 1.738 0 0 0 .19.1l-1.87 5.07h-.27l-.5-5v-1.8zm-5.45-6.43-3-3.75v-3.01a12.68 12.68 0 0 0 6 0v3.01zm1 3.47v2.13h-2v-2.13l1-.67zm.09 4.13.4 4h-2.99l.4-4zm.37-6.23 2.91-3.64.63.17v5.83zm13.54-23.77a3 3 0 0 1 -.87 2.12 2.951 2.951 0 0 1 -1.13.69v-5.63a3.01 3.01 0 0 1 2 2.82zm-28 2.82a3.179 3.179 0 0 1 -1.12-.69 3 3 0 0 1 1.12-4.95zm.88-7.81a4.985 4.985 0 0 0 -1.85.4 13.973 13.973 0 0 1 23.86-9.3 13.808 13.808 0 0 1 4.08 9.3 4.771 4.771 0 0 0 -1.42-.35l-4.74-6.64a.971.971 0 0 0 -.66-.41 1.007 1.007 0 0 0 -.75.19l-5.28 3.96a10.973 10.973 0 0 1 -5.6 2.15l-7.61.69c-.01 0-.02.01-.03.01zm1.12 7.99v-6.09l6.7-.61a12.886 12.886 0 0 0 6.62-2.54l4.46-3.35 4.22 5.91v6.68a11 11 0 0 1 -22 0zm6 17.3.63-.17 2.91 3.64-3.54 2.36zm-2 .53v4.43l-1.49-4.03zm-2.82 2.57 2.07 5.61-3.08-1.55zm-8.18 14.6v-13.46a1.017 1.017 0 0 1 .74-.97l5.72-1.53-1.43 5.72a1 1 0 0 0 .52 1.13l2.76 1.38-3.02 3.02a1.022 1.022 0 0 0 -.28.85.984.984 0 0 0 .5.73l5.63 3.13zm7.64-4.23 3.07-3.06a1.344 1.344 0 0 0 .11-.14l2.31 6.25zm7.36-4.87-.52 5.27a1.4 1.4 0 0 0 -.16.1l-1.97-5.34a1.244 1.244 0 0 0 .2-.1l2.45-1.63zm11 9.1h-9a1 1 0 0 1 -1-1v-1h10zm0-4h-2.1l2.1-5.68zm0-11.46-1 2.71v-4.42l1 .27zm30 15.46h-28v-19a1 1 0 0 1 1-1h26a1 1 0 0 1 1 1z"/><circle cx="46" cy="50" r="2"/><path d="m35 56h2v2h-2z"/><path d="m39 56h2v2h-2z"/><path d="m43 56h2v2h-2z"/><path d="m47 56h2v2h-2z"/><path d="m51 56h2v2h-2z"/><path d="m55 56h2v2h-2z"/></g></svg>