<svg height="512" viewBox="0 0 64 64" width="512" xmlns="http://www.w3.org/2000/svg"><g id="man-working-laptop-use-boy"><path d="m26 36.31v4.69l13.52 3.6a2.013 2.013 0 0 1 1.48 1.94v14.46h-38v-14.46a2.013 2.013 0 0 1 1.48-1.94l13.52-3.6v-4.69" fill="#91dc5a"/><path d="m37 19.36a4 4 0 0 1 -3 6.64h-.04c.03-.33.04-.66.04-1v-7a3.984 3.984 0 0 1 3 1.36z" fill="#ffc477"/><path d="m37 18v1.36a3.984 3.984 0 0 0 -3-1.36h-4l-3-4-3 4h-4l-3-4-3 4h-4a3.984 3.984 0 0 0 -3 1.36v-1.36a15 15 0 0 1 30 0z" fill="#ffcd00"/><path d="m34 18v7c0 .34-.01.67-.04 1a11.976 11.976 0 0 1 -7.96 10.31 11.939 11.939 0 0 1 -8 0 11.976 11.976 0 0 1 -7.96-10.31c-.03-.33-.04-.66-.04-1v-7h4l3-4 3 4h4l3-4 3 4z" fill="#ffc477"/><path d="m37 18v1.36a3.984 3.984 0 0 0 -3-1.36h-1a15.016 15.016 0 0 0 -13-14.86 14.6 14.6 0 0 1 2-.14 15.023 15.023 0 0 1 15 15z" fill="#ddb200"/><path d="m34 18v7c0 .34-.01.67-.04 1a11.976 11.976 0 0 1 -7.96 10.31 11.8 11.8 0 0 1 -4 .69 12 12 0 0 1 -2-.17 11.082 11.082 0 0 0 2-.52 11.976 11.976 0 0 0 7.96-10.31c.03-.33.04-.66.04-1v-7z" fill="#ffa733"/><path d="m31 57v4h-10a2.006 2.006 0 0 1 -2-2v-2z" fill="#acabb1"/><path d="m29.94 42.05-7.94 5.95-7.94-5.95 3.94-1.05v-4.69a11.939 11.939 0 0 0 8 0v4.69z" fill="#ffc477"/><path d="m10.04 26h-.04a4 4 0 0 1 -3-6.64 3.984 3.984 0 0 1 3-1.36v7c0 .34.01.67.04 1z" fill="#ffc477"/><path d="m61 41v20h-30v-20a2.006 2.006 0 0 1 2-2h26a2.006 2.006 0 0 1 2 2z" fill="#c6c5ca"/><path d="m61 41v20h-4v-20a2.006 2.006 0 0 0 -2-2h4a2.006 2.006 0 0 1 2 2z" fill="#898890"/><path d="m19 23a3 3 0 0 0 -6 0h2a1 1 0 0 1 2 0z"/><path d="m28 22a1 1 0 0 1 1 1h2a3 3 0 0 0 -6 0h2a1 1 0 0 1 1-1z"/><path d="m27 29h-2c0 .249-1.064 1-3 1s-3-.751-3-1h-2c0 1.71 2.149 3 5 3s5-1.29 5-3z"/><path d="m59 38h-26a3.009 3.009 0 0 0 -3 3v.03l-3-.8v-3.23a13.022 13.022 0 0 0 7.84-10.08 4.967 4.967 0 0 0 3.16-7.89v-1.03a16 16 0 0 0 -32 0v1.03a4.939 4.939 0 0 0 -1 2.97 4.982 4.982 0 0 0 4.16 4.92 13.037 13.037 0 0 0 7.84 10.08v3.23l-12.79 3.41a3.018 3.018 0 0 0 -2.21 2.9v14.46a1 1 0 0 0 1 1h58a1 1 0 0 0 1-1v-20a3.009 3.009 0 0 0 -3-3zm-22-16a3 3 0 0 1 -.87 2.12 2.951 2.951 0 0 1 -1.13.69v-5.63a3.01 3.01 0 0 1 2 2.82zm-28 2.82a3.179 3.179 0 0 1 -1.12-.69 3 3 0 0 1 1.12-4.95zm-.97-7.41a13.973 13.973 0 0 1 23.86-9.3 13.808 13.808 0 0 1 4.08 9.3 4.959 4.959 0 0 0 -1.97-.41h-3.5l-2.7-3.6a1.041 1.041 0 0 0 -1.6 0l-2.7 3.6h-3l-2.7-3.6a1.041 1.041 0 0 0 -1.6 0l-2.7 3.6h-3.5a5 5 0 0 0 -1.97.41zm2.97 7.59v-6h3a1.014 1.014 0 0 0 .8-.4l2.2-2.93 2.2 2.93a1.014 1.014 0 0 0 .8.4h4a1.014 1.014 0 0 0 .8-.4l2.2-2.93 2.2 2.93a1.014 1.014 0 0 0 .8.4h3v6a11 11 0 0 1 -22 0zm7.26 16.97a1 1 0 0 0 .74-.97v-3.36a12.68 12.68 0 0 0 6 0v3.36a1 1 0 0 0 .74.97l1.95.51-5.69 4.27-5.69-4.27zm11.74 18.03h-9a1 1 0 0 1 -1-1v-1h10zm0-4h-11a1 1 0 0 0 -1 1v2a3 3 0 0 0 .18 1h-14.18v-13.46a1.017 1.017 0 0 1 .74-.97l9.11-2.43 7.55 5.66a1 1 0 0 0 1.2 0l7.4-5.55zm30 4h-28v-19a1 1 0 0 1 1-1h26a1 1 0 0 1 1 1z"/><circle cx="46" cy="50" r="2"/><path d="m35 56h2v2h-2z"/><path d="m39 56h2v2h-2z"/><path d="m43 56h2v2h-2z"/><path d="m47 56h2v2h-2z"/><path d="m51 56h2v2h-2z"/><path d="m55 56h2v2h-2z"/></g></svg>