<svg height="512" viewBox="0 0 64 64" width="512" xmlns="http://www.w3.org/2000/svg"><g id="man-working-laptop-user-business_man" data-name="man-working-laptop-user-business man"><path d="m26 36.31v4.69l13.52 3.6a2.013 2.013 0 0 1 1.48 1.94v14.46h-38v-14.46a2.013 2.013 0 0 1 1.48-1.94l13.52-3.6v-4.69" fill="#898890"/><path d="m29.98 42.06-5.98 18.94h-2v-16l4-4z" fill="#e0e0e2"/><path d="m14.02 42.06 5.98 18.94h2v-16l-4-4z" fill="#e0e0e2"/><path d="m12.87 42.35-2.87 7.65 7 2-5 4 8 5-5.98-18.95" fill="#57565c"/><path d="m31.13 42.35 2.87 7.65-7 2 5 4-8 5 5.98-18.95" fill="#57565c"/><path d="m61 41v20h-30v-20a2.006 2.006 0 0 1 2-2h26a2.006 2.006 0 0 1 2 2z" fill="#c6c5ca"/><path d="m61 41v20h-4v-20a2.006 2.006 0 0 0 -2-2h4a2.006 2.006 0 0 1 2 2z" fill="#898890"/><path d="m38 13v9a4 4 0 0 0 -4-4l-6-5v-4a5.931 5.931 0 0 0 -1.54-4h3.54a8 8 0 0 1 8 8z" fill="#ffcd00"/><path d="m34 18a4 4 0 1 1 0 8h-.04c.03-.33.04-.66.04-1z" fill="#ffc477"/><path d="m34 18v7c0 .34-.01.67-.04 1a11.976 11.976 0 0 1 -7.96 10.31 12.037 12.037 0 0 1 -12.49-2.82 11.958 11.958 0 0 1 -3.47-7.49c-.03-.33-.04-.66-.04-1v-7l18-5z" fill="#ffc477"/><path d="m38 13v9a4 4 0 0 0 -4-4v-5a8.008 8.008 0 0 0 -7.53-7.99l-.01-.01h3.54a8 8 0 0 1 8 8z" fill="#ddb200"/><path d="m34 18v7c0 .34-.01.67-.04 1a11.976 11.976 0 0 1 -7.96 10.31 11.8 11.8 0 0 1 -4 .69 12 12 0 0 1 -2-.17 11.082 11.082 0 0 0 2-.52 11.976 11.976 0 0 0 7.96-10.31c.03-.33.04-.66.04-1v-7l-5-4.17 3-.83z" fill="#ffa733"/><path d="m31 57v4h-10a2.006 2.006 0 0 1 -2-2v-2z" fill="#acabb1"/><path d="m28 9v4l-18 5a4 4 0 0 0 -4 4v-11a8 8 0 0 1 8-8h8a6.022 6.022 0 0 1 6 6z" fill="#ffcd00"/><path d="m26 36.31v4.69l-4 4-4-4v-4.69a11.939 11.939 0 0 0 8 0z" fill="#ffc477"/><path d="m14.02 42.06 3.12 9.89-.14.05-7-2 2.86-7.63z" fill="#57565c"/><path d="m10.04 26h-.04a4 4 0 0 1 0-8v7c0 .34.01.67.04 1z" fill="#ffc477"/><path d="m19 23a3 3 0 0 0 -6 0h2a1 1 0 0 1 2 0z"/><path d="m28 22a1 1 0 0 1 1 1h2a3 3 0 0 0 -6 0h2a1 1 0 0 1 1-1z"/><path d="m27 29h-2c0 .249-1.064 1-3 1s-3-.751-3-1h-2c0 1.71 2.149 3 5 3s5-1.29 5-3z"/><path d="m59 38h-26a3.009 3.009 0 0 0 -3 3v.03l-3-.8v-3.24a12.955 12.955 0 0 0 7.86-10.07 5.077 5.077 0 0 0 2.68-1.39 5.005 5.005 0 0 0 1.46-3.53v-9a9.014 9.014 0 0 0 -9-9h-3.11a6.952 6.952 0 0 0 -4.89-2h-8a9.014 9.014 0 0 0 -9 9v11a4.986 4.986 0 0 0 4.15 4.92 12.81 12.81 0 0 0 7.85 10.06v3.25l-12.79 3.41a3.018 3.018 0 0 0 -2.21 2.9v14.46a1 1 0 0 0 1 1h58a1 1 0 0 0 1-1v-20a3.009 3.009 0 0 0 -3-3zm-30.29 4.76-4.18 13.24h-1.53v-10.59l3.3-3.3zm-6.71.83-3-3v-2.95a12.68 12.68 0 0 0 6 0v2.95zm14.13-19.47a2.951 2.951 0 0 1 -1.13.69v-5.63a3 3 0 0 1 1.13 4.94zm-6.13-18.12a7.008 7.008 0 0 1 7 7v5.03a4.9 4.9 0 0 0 -2.59-.99l-5.41-4.51v-3.53a7.02 7.02 0 0 0 -.68-3zm-21 18.82a3.179 3.179 0 0 1 -1.12-.69 3 3 0 0 1 1.12-4.95zm-2-6.79v-7.03a7.008 7.008 0 0 1 7-7h8a5 5 0 0 1 5 5v3.24l-17.21 4.78a4.931 4.931 0 0 0 -2.79 1.01zm7.22 14.75a10.9 10.9 0 0 1 -3.22-7.78v-6.24l16.76-4.66 5.24 4.37v6.53a9.1 9.1 0 0 1 -.04.91v.01a10.989 10.989 0 0 1 -14.63 9.44 10.645 10.645 0 0 1 -4.11-2.58zm-.76 10.83 2.2 6.97-4.34-1.24zm-9.46 16.39v-13.46a1.017 1.017 0 0 1 .74-.97l6.51-1.74-2.19 5.82a1.014 1.014 0 0 0 .05.8.991.991 0 0 0 .62.51l5.13 1.47-3.48 2.79a.976.976 0 0 0 -.38.84 1.021 1.021 0 0 0 .47.79l5.04 3.15zm14-1.43-4.27-2.67 2.88-2.31 1.39 4.39zm-2.71-15.81 2.41-.65 3.3 3.3v10.59h-1.53zm14.71 17.24h-9a1 1 0 0 1 -1-1v-1h10zm0-4h-3.38l.77-2.41 2.61 2.09zm0-2.88-.86-.69.86-.25zm0-3.02-1.66.48 1.66-5.27zm30 9.9h-28v-19a1 1 0 0 1 1-1h26a1 1 0 0 1 1 1z"/><circle cx="46" cy="50" r="2"/><path d="m35 56h2v2h-2z"/><path d="m39 56h2v2h-2z"/><path d="m43 56h2v2h-2z"/><path d="m47 56h2v2h-2z"/><path d="m51 56h2v2h-2z"/><path d="m55 56h2v2h-2z"/></g></svg>