<svg height="512" viewBox="0 0 64 64" width="512" xmlns="http://www.w3.org/2000/svg"><g id="user-woman-girl-working-laptop"><path d="m26 36.31v4.69l13.52 3.6a2.013 2.013 0 0 1 1.48 1.94v14.46h-38v-14.46a2.013 2.013 0 0 1 1.48-1.94l13.52-3.6v-4.69" fill="#ffc477"/><path d="m41 46.54v7.79l-8 6.67h-22l-8-6.67v-7.79a2.013 2.013 0 0 1 1.48-1.94l1.52-.4v2.8a8 8 0 0 0 8 8h4v-8h8v8h4a8 8 0 0 0 8-8v-2.8l1.52.4a2.013 2.013 0 0 1 1.48 1.94z" fill="#933ec5"/><path d="m38 19v3a3.995 3.995 0 0 0 -4-4v-1h-3l-2-4-2 4h-10l-2-4-2 4h-3v1a3.995 3.995 0 0 0 -4 4v-3a16 16 0 0 1 32 0z" fill="#ffcd00"/><path d="m36.83 19.17a4 4 0 0 1 -2.83 6.83h-.04c.03-.33.04-.66.04-1v-7a4.025 4.025 0 0 1 2.83 1.17z" fill="#ffc477"/><path d="m34 18v7c0 .34-.01.67-.04 1a11.976 11.976 0 0 1 -7.96 10.31 11.939 11.939 0 0 1 -8 0 11.976 11.976 0 0 1 -7.96-10.31c-.03-.33-.04-.66-.04-1v-8h3l2-4 2 4h10l2-4 2 4h3z" fill="#ffc477"/><path d="m38 19v3a3.995 3.995 0 0 0 -4-4v-1h-.12a16 16 0 0 0 -13.86-13.87 14.421 14.421 0 0 1 1.98-.13 16 16 0 0 1 16 16z" fill="#ddb200"/><path d="m34 17v8c0 .34-.01.67-.04 1a11.976 11.976 0 0 1 -7.96 10.31 11.8 11.8 0 0 1 -4 .69 12 12 0 0 1 -2-.17 11.082 11.082 0 0 0 2-.52 11.976 11.976 0 0 0 7.96-10.31c.03-.33.04-.66.04-1v-8h-3l2-4 2 4z" fill="#ffa733"/><path d="m31 57v4h-10a2.006 2.006 0 0 1 -2-2v-2z" fill="#acabb1"/><path d="m18 36.31v18.69h-4a8 8 0 0 1 -8-8v-25a4 4 0 0 0 4 4h.04a11.976 11.976 0 0 0 7.96 10.31z" fill="#ffcd00"/><path d="m26 36.31v18.69h4a8 8 0 0 0 8-8v-25a4 4 0 0 1 -4 4h-.04a11.976 11.976 0 0 1 -7.96 10.31z" fill="#ffcd00"/><path d="m38 22v25a8 8 0 0 1 -8 8h-4a8 8 0 0 0 8-8v-21a4 4 0 0 0 4-4z" fill="#ddb200"/><path d="m10.04 26h-.04a4 4 0 1 1 0-8v7c0 .34.01.67.04 1z" fill="#ffc477"/><path d="m61 41v20h-30v-20a2.006 2.006 0 0 1 2-2h26a2.006 2.006 0 0 1 2 2z" fill="#c6c5ca"/><path d="m61 41v20h-4v-20a2.006 2.006 0 0 0 -2-2h4a2.006 2.006 0 0 1 2 2z" fill="#898890"/><path d="m16 21a3 3 0 0 0 -3 3h2a1 1 0 0 1 2 0h2a3 3 0 0 0 -3-3z"/><path d="m28 21a3 3 0 0 0 -3 3h2a1 1 0 0 1 2 0h2a3 3 0 0 0 -3-3z"/><path d="m22 31a1 1 0 0 1 -1-1h-2a3 3 0 0 0 6 0h-2a1 1 0 0 1 -1 1z"/><path d="m59 38h-20v-19a17 17 0 1 0 -34 0v24.43l-.79.21a3.018 3.018 0 0 0 -2.21 2.9v14.46a1 1 0 0 0 1 1h58a1 1 0 0 0 1-1v-20a3.009 3.009 0 0 0 -3-3zm-47.61-29.61a14.994 14.994 0 0 1 25.56 9.59 5.134 5.134 0 0 0 -1.95-.88v-.1a1 1 0 0 0 -1-1h-2.38l-1.73-3.45a1.039 1.039 0 0 0 -1.78 0l-1.73 3.45h-8.76l-1.73-3.45a1.039 1.039 0 0 0 -1.78 0l-1.73 3.45h-2.38a1 1 0 0 0 -1 1v.1a5.006 5.006 0 0 0 -1.95.89 14.879 14.879 0 0 1 4.34-9.6zm25.61 13.61a2.994 2.994 0 0 1 -2 2.81v-5.63a3.179 3.179 0 0 1 1.12.69 3.03 3.03 0 0 1 .88 2.13zm-15 14a11.007 11.007 0 0 1 -11-11v-7h2a.988.988 0 0 0 .89-.55l1.11-2.21 1.11 2.21a.988.988 0 0 0 .89.55h10a.988.988 0 0 0 .89-.55l1.11-2.21 1.11 2.21a.988.988 0 0 0 .89.55h2v7a11.007 11.007 0 0 1 -11 11zm3 1.64v8.36h-6v-8.36a12.68 12.68 0 0 0 6 0zm-17.13-17.76a3.1 3.1 0 0 1 1.13-.7v5.64a3 3 0 0 1 -1.13-4.94zm-.87 6.09a4.958 4.958 0 0 0 2.16.94 13.017 13.017 0 0 0 7.84 10.09v17h-3a7.008 7.008 0 0 1 -7-7zm-3 34.03v-3.53l4.24 3.53zm14-3v2a3 3 0 0 0 .18 1h-6.82l-7.36-6.14v-7.32a1.011 1.011 0 0 1 .73-.97l.27-.07v1.5a9.014 9.014 0 0 0 9 9h4a1 1 0 0 0 1-1v-7h6v7a1 1 0 0 0 1 1h-7a1 1 0 0 0 -1 1zm12 3h-9a1 1 0 0 1 -1-1v-1h10zm0-19v13h-3v-17a13.017 13.017 0 0 0 7.84-10.09 4.736 4.736 0 0 0 2.16-.94v12.03h-4a3.009 3.009 0 0 0 -3 3zm30 19h-28v-19a1 1 0 0 1 1-1h26a1 1 0 0 1 1 1z"/><circle cx="46" cy="50" r="2"/><path d="m35 56h2v2h-2z"/><path d="m39 56h2v2h-2z"/><path d="m43 56h2v2h-2z"/><path d="m47 56h2v2h-2z"/><path d="m51 56h2v2h-2z"/><path d="m55 56h2v2h-2z"/></g></svg>