<svg height="512" viewBox="0 0 64 64" width="512" xmlns="http://www.w3.org/2000/svg"><g id="wman-girl-avatar-working-female"><path d="m31 57v4h-10a2.006 2.006 0 0 1 -2-2v-2z" fill="#acabb1"/><path d="m29 36.31v4.69l13.52 3.6a2.013 2.013 0 0 1 1.48 1.94v14.46h-38v-14.46a2.013 2.013 0 0 1 1.48-1.94l13.52-3.6v-4.69" fill="#ffc477"/><path d="m38 56a5 5 0 0 1 -5 5h-16a5 5 0 0 1 0-10v-3h16v3a5 5 0 0 1 5 5z" fill="#ff3051"/><path d="m31 57v4h-10a2.006 2.006 0 0 1 -2-2v-2z" fill="#acabb1"/><path d="m40 19.36a4 4 0 0 1 -3 6.64h-.04c.03-.33.04-.66.04-1v-7a4.025 4.025 0 0 1 2.83 1.17 1.537 1.537 0 0 1 .17.19z" fill="#ffc477"/><path d="m20 13-7 5a4.025 4.025 0 0 0 -2.83 1.17 1.537 1.537 0 0 0 -.17.19v-1.36a15 15 0 0 1 30 0v1.36a1.537 1.537 0 0 0 -.17-.19 4.025 4.025 0 0 0 -2.83-1.17l-13-3.82z" fill="#ffcd00"/><path d="m37 18v7c0 .34-.01.67-.04 1a11.976 11.976 0 0 1 -7.96 10.31 11.939 11.939 0 0 1 -8 0 11.976 11.976 0 0 1 -7.96-10.31c-.03-.33-.04-.66-.04-1v-7l7-5 4 1.18z" fill="#ffc477"/><path d="m40 18v1.36a1.537 1.537 0 0 0 -.17-.19 4.025 4.025 0 0 0 -2.83-1.17l-1.01-.3a14.982 14.982 0 0 0 -12.99-14.56 14.6 14.6 0 0 1 2-.14 15.005 15.005 0 0 1 15 15z" fill="#ddb200"/><path d="m37 18v7c0 .34-.01.67-.04 1a11.976 11.976 0 0 1 -7.96 10.31 11.8 11.8 0 0 1 -4 .69 12 12 0 0 1 -2-.17 11.082 11.082 0 0 0 2-.52 11.976 11.976 0 0 0 7.96-10.31c.03-.33.04-.66.04-1v-7l-13-3.82-1.17-.34 1.17-.84 4 1.18z" fill="#ffa733"/><path d="m13.04 26h-.04a4 4 0 0 1 -3-6.64 1.537 1.537 0 0 1 .17-.19 4.025 4.025 0 0 1 2.83-1.17v7c0 .34.01.67.04 1z" fill="#ffc477"/><path d="m13 26v8a8 8 0 0 1 -8 8h-2v-8a8 8 0 0 1 8-8z" fill="#ffcd00"/><path d="m61 41v20h-30v-20a2.006 2.006 0 0 1 2-2h26a2.006 2.006 0 0 1 2 2z" fill="#c6c5ca"/><path d="m61 41v20h-4v-20a2.006 2.006 0 0 0 -2-2h4a2.006 2.006 0 0 1 2 2z" fill="#898890"/><path d="m31 23a1 1 0 0 1 1 1h2a3 3 0 0 0 -6 0h2a1 1 0 0 1 1-1z"/><path d="m19 21a3 3 0 0 0 -3 3h2a1 1 0 0 1 2 0h2a3 3 0 0 0 -3-3z"/><path d="m28 30h-2a1 1 0 0 1 -2 0h-2a3 3 0 0 0 6 0z"/><path d="m59 38h-26a3 3 0 0 0 -2.9 2.26l-.1-.03v-3.23a13.017 13.017 0 0 0 7.84-10.09 4.959 4.959 0 0 0 3.16-7.88v-1.03a16 16 0 0 0 -32 0v1.03a4.964 4.964 0 0 0 -1 2.97 4.887 4.887 0 0 0 1.18 3.18 9.029 9.029 0 0 0 -7.18 8.82v8a1 1 0 0 0 1 1h2a9.014 9.014 0 0 0 9-9v-2.1a13.043 13.043 0 0 0 6 5.1v3.23l-12.79 3.41a3.018 3.018 0 0 0 -2.21 2.9v14.46a1 1 0 0 0 1 1h55a1 1 0 0 0 1-1v-20a3.009 3.009 0 0 0 -3-3zm-19-16a2.994 2.994 0 0 1 -2 2.81v-5.63a3.179 3.179 0 0 1 1.12.69 3.03 3.03 0 0 1 .88 2.13zm-28 12a7.008 7.008 0 0 1 -7 7h-1v-7a7.008 7.008 0 0 1 7-7h1zm0-9.18a3 3 0 0 1 -1.13-4.94 3.1 3.1 0 0 1 1.13-.7zm.63-7.78a4.794 4.794 0 0 0 -1.6.37 14 14 0 0 1 13.97-13.41 14.007 14.007 0 0 1 13.97 13.41 5.01 5.01 0 0 0 -1.76-.39l-12.21-3.59v-4.43h-2v3.84l-2-.59v-3.25h-2v3.49zm1.37 7.96v-6.49l6.18-4.41 15.82 4.65v6.25a11 11 0 0 1 -22 0zm-7 35v-13.46a1.008 1.008 0 0 1 .74-.97l8.26-2.2v6.71a5.992 5.992 0 0 0 -3.46 9.92zm23 0h-9a1 1 0 0 1 -1-1v-1h10zm0-4h-11a1 1 0 0 0 -1 1v2a3 3 0 0 0 .18 1h-1.18a4 4 0 0 1 0-8 1 1 0 0 0 1-1v-2h12zm0-9h-12v-4.17l3.26-.86a1 1 0 0 0 .74-.97v-3.36a12.68 12.68 0 0 0 6 0v3.36a1.017 1.017 0 0 0 .74.97l1.26.33zm30 13h-28v-19a1 1 0 0 1 1-1h26a1 1 0 0 1 1 1z"/><circle cx="46" cy="50" r="2"/><path d="m35 56h2v2h-2z"/><path d="m39 56h2v2h-2z"/><path d="m43 56h2v2h-2z"/><path d="m47 56h2v2h-2z"/><path d="m51 56h2v2h-2z"/><path d="m55 56h2v2h-2z"/></g></svg>