<svg height="512" viewBox="0 0 64 64" width="512" xmlns="http://www.w3.org/2000/svg"><g id="woman-girl-avatar-female-laptop"><path d="m31 57v4h-10a2.006 2.006 0 0 1 -2-2v-2z" fill="#acabb1"/><path d="m27 36.31v4.69l13.52 3.6a2.013 2.013 0 0 1 1.48 1.94v14.46h-38v-14.46a2.013 2.013 0 0 1 1.48-1.94l13.52-3.6v-4.69" fill="#46f8ff"/><path d="m31 57v4h-10a2.006 2.006 0 0 1 -2-2v-2z" fill="#acabb1"/><path d="m39 28a1.878 1.878 0 0 1 -.24.94v.01a2.012 2.012 0 0 1 -1.76 1.05h-2v-4h2a2.015 2.015 0 0 1 2 2z" fill="#46f8ff"/><path d="m38 19.36a4 4 0 0 1 -3 6.64h-.04c.03-.33.04-.66.04-1v-7a4.025 4.025 0 0 1 2.83 1.17 1.537 1.537 0 0 1 .17.19z" fill="#ffc477"/><path d="m38 18v1.36a1.537 1.537 0 0 0 -.17-.19 4.025 4.025 0 0 0 -2.83-1.17l-7-5-17 5a4.025 4.025 0 0 0 -2.83 1.17 1.537 1.537 0 0 0 -.17.19v-1.36a15 15 0 0 1 30 0z" fill="#ffcd00"/><path d="m35 18v7c0 .34-.01.67-.04 1a11.976 11.976 0 0 1 -7.96 10.31 11.939 11.939 0 0 1 -8 0 11.976 11.976 0 0 1 -7.96-10.31c-.03-.33-.04-.66-.04-1v-7l17-5z" fill="#ffc477"/><path d="m38 18v1.36a1.537 1.537 0 0 0 -.17-.19 4.025 4.025 0 0 0 -2.83-1.17l-1.02-.73a15.013 15.013 0 0 0 -12.98-14.13 14.6 14.6 0 0 1 2-.14 15.023 15.023 0 0 1 15 15z" fill="#ddb200"/><path d="m35 18v7c0 .34-.01.67-.04 1a11.976 11.976 0 0 1 -7.96 10.31 11.8 11.8 0 0 1 -4 .69 12 12 0 0 1 -2-.17 11.082 11.082 0 0 0 2-.52 11.976 11.976 0 0 0 7.96-10.31c.03-.33.04-.66.04-1v-7l-5.83-4.17 2.83-.83z" fill="#ffa733"/><path d="m29 41.54v8.46l-6-4 4-5 2 .53z" fill="#d1e7f8"/><path d="m27 36.31v4.69l-4 5-4-5v-4.69a11.939 11.939 0 0 0 8 0z" fill="#ffc477"/><path d="m19 41 4 5-6 4v-8.47z" fill="#d1e7f8"/><path d="m11.04 26h-.04a4 4 0 0 1 -3-6.64 1.537 1.537 0 0 1 .17-.19 4.025 4.025 0 0 1 2.83-1.17v7c0 .34.01.67.04 1z" fill="#ffc477"/><path d="m11 30v14a8 8 0 0 1 -7 7.94 8.262 8.262 0 0 1 -1 .06v-16a7.945 7.945 0 0 1 4.24-7.05 2.012 2.012 0 0 0 1.76 1.05z" fill="#ffcd00"/><path d="m35 30v14a8 8 0 0 0 7 7.94 8.262 8.262 0 0 0 1 .06v-16a7.945 7.945 0 0 0 -4.24-7.05 2.012 2.012 0 0 1 -1.76 1.05z" fill="#ffcd00"/><path d="m43 36v16a8.262 8.262 0 0 1 -1-.06 7.677 7.677 0 0 1 -3-1.01v-14.93a7.917 7.917 0 0 0 -2.72-6h.72a2.012 2.012 0 0 0 1.76-1.05 7.945 7.945 0 0 1 4.24 7.05z" fill="#ddb200"/><path d="m11 28v2h-2a2.012 2.012 0 0 1 -1.76-1.05v-.01a1.878 1.878 0 0 1 -.24-.94 2.015 2.015 0 0 1 2-2h2z" fill="#46f8ff"/><path d="m61 41v20h-30v-20a2.006 2.006 0 0 1 2-2h26a2.006 2.006 0 0 1 2 2z" fill="#c6c5ca"/><path d="m61 41v20h-4v-20a2.006 2.006 0 0 0 -2-2h4a2.006 2.006 0 0 1 2 2z" fill="#898890"/><path d="m17 21a3 3 0 0 0 -3 3h2a1 1 0 0 1 2 0h2a3 3 0 0 0 -3-3z"/><path d="m26 24h2a1 1 0 0 1 2 0h2a3 3 0 0 0 -6 0z"/><path d="m23 31a1 1 0 0 1 -1-1h-2a3 3 0 0 0 6 0h-2a1 1 0 0 1 -1 1z"/><path d="m59 38h-15v-2a8.922 8.922 0 0 0 -4.05-7.49 2.844 2.844 0 0 0 .05-.51 2.992 2.992 0 0 0 -1.41-2.53 4.946 4.946 0 0 0 .41-6.44v-1.03a16 16 0 0 0 -32 0v1.03a4.932 4.932 0 0 0 .41 6.43 3.022 3.022 0 0 0 -1.41 2.54 2.844 2.844 0 0 0 .05.51 8.922 8.922 0 0 0 -4.05 7.49v16a1 1 0 0 0 1 1v8a1 1 0 0 0 1 1h57a1 1 0 0 0 1-1v-20a3.009 3.009 0 0 0 -3-3zm-20.04-7.75a6.929 6.929 0 0 1 3.04 5.75v2h-6v-7h1a2.963 2.963 0 0 0 1.96-.75zm-2.96-1.25v-2h1a1 1 0 0 1 0 2zm2-7a2.994 2.994 0 0 1 -2 2.81v-5.63a3.179 3.179 0 0 1 1.12.69 3.03 3.03 0 0 1 .88 2.13zm-15-18a14 14 0 0 1 13.97 13.41 4.794 4.794 0 0 0 -1.6-.37l-6.79-4.85a1.015 1.015 0 0 0 -.86-.15l-16.93 4.98a5.01 5.01 0 0 0 -1.76.39 14.007 14.007 0 0 1 13.97-13.41zm-5 38.3.63-.17 2.91 3.64-3.54 2.36zm-6-.47v-9.93a13.043 13.043 0 0 0 6 5.1v3.23zm8-1.18v-3.01a12.68 12.68 0 0 0 6 0v3.01l-3 3.75zm7.37 1.48.63.17v5.83l-3.54-2.36zm-4.37-6.13a11.007 11.007 0 0 1 -11-11v-6.25l15.81-4.65 6.19 4.41v6.49a11.007 11.007 0 0 1 -11 11zm-14.13-16.12a3.1 3.1 0 0 1 1.13-.7v5.64a3 3 0 0 1 -1.13-4.94zm.13 7.12h1v2h-1a1 1 0 0 1 0-2zm-5 9a6.929 6.929 0 0 1 3.04-5.75 2.963 2.963 0 0 0 1.96.75h1v13a7.013 7.013 0 0 1 -6 6.93zm26 24h-9a1 1 0 0 1 -1-1v-1h10zm0-4h-11a1 1 0 0 0 -1 1v2a3 3 0 0 0 .18 1h-5.18a4 4 0 0 1 0-8v-2a5.99 5.99 0 0 0 -4.46 10h-3.54v-7.23a9.016 9.016 0 0 0 7-8.77v-.1l4-1.07v7.17a1 1 0 0 0 1.55.83l5.45-3.63 5.45 3.63a1 1 0 0 0 1.55-.83zm.02-15.23-2.02-.54v-3.23a13.043 13.043 0 0 0 6-5.1v6.1h-1a3 3 0 0 0 -2.98 2.77zm29.98 19.23h-28v-19a1 1 0 0 1 1-1h26a1 1 0 0 1 1 1z"/><circle cx="46" cy="50" r="2"/><path d="m35 56h2v2h-2z"/><path d="m39 56h2v2h-2z"/><path d="m43 56h2v2h-2z"/><path d="m47 56h2v2h-2z"/><path d="m51 56h2v2h-2z"/><path d="m55 56h2v2h-2z"/></g></svg>