<svg height="512" viewBox="0 0 64 64" width="512" xmlns="http://www.w3.org/2000/svg"><g id="woman-girl-working-user-laptop"><path d="m61 41v20h-4v-20a2.006 2.006 0 0 0 -2-2h4a2.006 2.006 0 0 1 2 2z" fill="#898890"/><path d="m26 36.31v4.69l13.52 3.6a2.013 2.013 0 0 1 1.48 1.94v14.46h-38v-14.46a2.013 2.013 0 0 1 1.48-1.94l13.52-3.6v-4.69" fill="#806749"/><path d="m31 42.33v3.67h-18v-3.67l5-1.33v-4.69a11.939 11.939 0 0 0 8 0v4.69z" fill="#ffc477"/><path d="m61 41v20h-30v-20a2.006 2.006 0 0 1 2-2h26a2.006 2.006 0 0 1 2 2z" fill="#c6c5ca"/><path d="m61 41v20h-4v-20a2.006 2.006 0 0 0 -2-2h4a2.006 2.006 0 0 1 2 2z" fill="#898890"/><path d="m37 19.36a4 4 0 0 1 -3 6.64h-.04c.03-.33.04-.66.04-1v-7a4.025 4.025 0 0 1 2.83 1.17 1.537 1.537 0 0 1 .17.19z" fill="#ffc477"/><path d="m37 24.64v12.36h-11v-.69a11.976 11.976 0 0 0 7.96-10.31h.04a3.984 3.984 0 0 0 3-1.36z" fill="#ffcd00"/><path d="m37 18v1.36a1.537 1.537 0 0 0 -.17-.19 4.025 4.025 0 0 0 -2.83-1.17h-24a4.025 4.025 0 0 0 -2.83 1.17 1.537 1.537 0 0 0 -.17.19v-1.36a15 15 0 0 1 30 0z" fill="#ffcd00"/><path d="m34 18v7c0 .34-.01.67-.04 1a11.976 11.976 0 0 1 -7.96 10.31 11.939 11.939 0 0 1 -8 0 11.976 11.976 0 0 1 -7.96-10.31c-.03-.33-.04-.66-.04-1v-7z" fill="#ffc477"/><path d="m37 24.64v12.36h-4v-7.21a11.682 11.682 0 0 0 .96-3.79h.04a3.984 3.984 0 0 0 3-1.36z" fill="#ddb200"/><path d="m37 18v1.36a1.537 1.537 0 0 0 -.17-.19 4.025 4.025 0 0 0 -2.83-1.17h-1a15.016 15.016 0 0 0 -13-14.86 14.6 14.6 0 0 1 2-.14 15.023 15.023 0 0 1 15 15z" fill="#ddb200"/><path d="m34 18v7c0 .34-.01.67-.04 1a11.976 11.976 0 0 1 -7.96 10.31 11.8 11.8 0 0 1 -4 .69 12 12 0 0 1 -2-.17 11.082 11.082 0 0 0 2-.52 11.976 11.976 0 0 0 7.96-10.31c.03-.33.04-.66.04-1v-7z" fill="#ffa733"/><path d="m31 57v4h-10a2.006 2.006 0 0 1 -2-2v-2z" fill="#acabb1"/><path d="m18 36.31v.69h-11v-12.36a3.984 3.984 0 0 0 3 1.36h.04a11.976 11.976 0 0 0 7.96 10.31z" fill="#ffcd00"/><path d="m10.04 26h-.04a4 4 0 0 1 -3-6.64 1.537 1.537 0 0 1 .17-.19 4.025 4.025 0 0 1 2.83-1.17v7c0 .34.01.67.04 1z" fill="#ffc477"/><path d="m16 21a3 3 0 0 0 -3 3h2a1 1 0 0 1 2 0h2a3 3 0 0 0 -3-3z"/><path d="m28 23a1 1 0 0 1 1 1h2a3 3 0 0 0 -6 0h2a1 1 0 0 1 1-1z"/><path d="m25 30h-2a1 1 0 0 1 -2 0h-2a3 3 0 0 0 6 0z"/><path d="m59 38h-22a1 1 0 0 0 1-1v-12.03a4.91 4.91 0 0 0 0-5.94v-1.03a16 16 0 0 0 -32 0v1.03a4.91 4.91 0 0 0 0 5.94v12.03a1 1 0 0 0 1 1h10v2.23l-12.79 3.41a3.018 3.018 0 0 0 -2.21 2.9v14.46a1 1 0 0 0 1 1h58a1 1 0 0 0 1-1v-20a3.009 3.009 0 0 0 -3-3zm-22-16a2.994 2.994 0 0 1 -2 2.81v-5.63a3.179 3.179 0 0 1 1.12.69 3.03 3.03 0 0 1 .88 2.13zm-1 4.58v9.42h-7.1a13.017 13.017 0 0 0 5.94-9.09 4.433 4.433 0 0 0 1.16-.33zm-14-22.58a14 14 0 0 1 13.97 13.41 5.071 5.071 0 0 0 -1.97-.41h-24a5.071 5.071 0 0 0 -1.97.41 14.007 14.007 0 0 1 13.97-13.41zm-15 18a3.022 3.022 0 0 1 .87-2.12 3.1 3.1 0 0 1 1.13-.7v5.64a3.01 3.01 0 0 1 -2-2.82zm1 14v-9.43a4.868 4.868 0 0 0 1.16.34 12.986 12.986 0 0 0 5.94 9.09zm3-11v-6h22v6a11 11 0 0 1 -22 0zm19 35h-9a1 1 0 0 1 -1-1v-1h10zm0-4h-11a1 1 0 0 0 -1 1v2a3 3 0 0 0 .18 1h-6.18a4 4 0 0 1 0-8v-2a5.99 5.99 0 0 0 -4.46 10h-3.54v-13.46a1.008 1.008 0 0 1 .74-.97l7.26-1.94v2.37a1 1 0 0 0 1 1h17zm0-11h-16v-1.9l4.26-1.13a1 1 0 0 0 .74-.97v-3.36a12.68 12.68 0 0 0 6 0v3.36a1 1 0 0 0 .74.97l4.26 1.13zm0-4v.03l-3-.8v-2.23h6a3.009 3.009 0 0 0 -3 3zm30 19h-28v-19a1 1 0 0 1 1-1h26a1 1 0 0 1 1 1z"/><circle cx="46" cy="50" r="2"/><path d="m35 56h2v2h-2z"/><path d="m39 56h2v2h-2z"/><path d="m43 56h2v2h-2z"/><path d="m47 56h2v2h-2z"/><path d="m51 56h2v2h-2z"/><path d="m55 56h2v2h-2z"/></g></svg>