<svg height="512" viewBox="0 0 64 64" width="512" xmlns="http://www.w3.org/2000/svg"><g id="woman-laptop-user-working-business_woman" data-name="woman-laptop-user-working-business woman"><path d="m27 36.31v4.69l13.52 3.6a2.013 2.013 0 0 1 1.48 1.94v14.46h-38v-14.46a2.013 2.013 0 0 1 1.48-1.94l13.52-3.6v-4.69" fill="#e4187a"/><path d="m38 19.36a4 4 0 0 1 -3 6.64h-.04c.03-.33.04-.66.04-1v-7a4.025 4.025 0 0 1 2.83 1.17 1.537 1.537 0 0 1 .17.19z" fill="#ffc477"/><path d="m38 18v1.36a1.537 1.537 0 0 0 -.17-.19 4.025 4.025 0 0 0 -2.83-1.17l-7-5-17 5a4.025 4.025 0 0 0 -2.83 1.17 1.537 1.537 0 0 0 -.17.19v-1.36a15 15 0 0 1 30 0z" fill="#ffcd00"/><path d="m35 18v7c0 .34-.01.67-.04 1a11.976 11.976 0 0 1 -7.96 10.31 11.939 11.939 0 0 1 -8 0 11.976 11.976 0 0 1 -7.96-10.31c-.03-.33-.04-.66-.04-1v-7l17-5z" fill="#ffc477"/><path d="m38 18v1.36a1.537 1.537 0 0 0 -.17-.19 4.025 4.025 0 0 0 -2.83-1.17 15.023 15.023 0 0 0 -13.47-14.92 11.854 11.854 0 0 1 1.47-.08 15.023 15.023 0 0 1 15 15z" fill="#ddb200"/><path d="m35 18v7c0 .34-.01.67-.04 1a11.976 11.976 0 0 1 -7.96 10.31 11.8 11.8 0 0 1 -4 .69 12.332 12.332 0 0 1 -1.5-.09 11.549 11.549 0 0 0 2.5-.6 11.976 11.976 0 0 0 7.96-10.31c.03-.33.04-.66.04-1v-7l-6.12-4.37 2.12-.63z" fill="#ffa733"/><path d="m31 42.07v4.93h-3v7l-5-5 4-8z" fill="#c6c5ca"/><path d="m31 57v4h-10a2.006 2.006 0 0 1 -2-2v-2z" fill="#acabb1"/><path d="m27 36.31v4.69l-4 8-4-8v-4.69a11.939 11.939 0 0 0 8 0z" fill="#ffc477"/><path d="m19 41 4 8-5 5v-7h-3v-4.93z" fill="#c6c5ca"/><path d="m11.04 26h-.04a4 4 0 0 1 -3-6.64 1.537 1.537 0 0 1 .17-.19 4.025 4.025 0 0 1 2.83-1.17v7c0 .34.01.67.04 1z" fill="#ffc477"/><path d="m11 43.13v.87a8 8 0 0 1 -7 7.94 8.262 8.262 0 0 1 -1 .06v-16a7.945 7.945 0 0 1 4.24-7.05 2.012 2.012 0 0 0 1.76 1.05h2z" fill="#ffcd00"/><path d="m11 28v2h-2a2.012 2.012 0 0 1 -1.76-1.05v-.01a1.878 1.878 0 0 1 -.24-.94 2.015 2.015 0 0 1 2-2h2z" fill="#e4187a"/><path d="m61 41v20h-30v-20a2.006 2.006 0 0 1 2-2h26a2.006 2.006 0 0 1 2 2z" fill="#c6c5ca"/><path d="m61 41v20h-4v-20a2.006 2.006 0 0 0 -2-2h4a2.006 2.006 0 0 1 2 2z" fill="#898890"/><path d="m17 21a3 3 0 0 0 -3 3h2a1 1 0 0 1 2 0h2a3 3 0 0 0 -3-3z"/><path d="m26 24h2a1 1 0 0 1 2 0h2a3 3 0 0 0 -6 0z"/><path d="m23 31a1 1 0 0 1 -1-1h-2a3 3 0 0 0 6 0h-2a1 1 0 0 1 -1 1z"/><path d="m59 38h-26a3 3 0 0 0 -2.98 2.77l-2.02-.54v-3.23a13.017 13.017 0 0 0 7.84-10.09 4.95 4.95 0 0 0 3.16-7.87v-1.04a16 16 0 0 0 -32 0v1.03a4.932 4.932 0 0 0 .41 6.43 3.022 3.022 0 0 0 -1.41 2.54 2.844 2.844 0 0 0 .05.51 8.922 8.922 0 0 0 -4.05 7.49v16a1 1 0 0 0 1 1v8a1 1 0 0 0 1 1h57a1 1 0 0 0 1-1v-20a3.009 3.009 0 0 0 -3-3zm-25-13a11 11 0 0 1 -22 0v-6.25l15.82-4.65 6.18 4.41zm-16 21h-2v-3.17l2.47-.65 3.31 6.62-2.78 2.79v-4.59a1 1 0 0 0 -1-1zm-6-4.17v-9.93a13.043 13.043 0 0 0 6 5.1v3.23zm8-1.07v-3.12a12.68 12.68 0 0 0 6 0v3.12l-3 6zm17.25-20.74a3.031 3.031 0 0 1 .75 1.98 2.994 2.994 0 0 1 -2 2.81v-5.62a3.148 3.148 0 0 1 1.18.75.5.5 0 0 0 .07.08zm-14.25-16.02a14 14 0 0 1 13.97 13.41 4.794 4.794 0 0 0 -1.6-.37l-6.79-4.85a1.015 1.015 0 0 0 -.86-.15l-16.93 4.98a5.01 5.01 0 0 0 -1.76.39 14.007 14.007 0 0 1 13.97-13.41zm-14.13 15.88a3.1 3.1 0 0 1 1.13-.7v5.64a3 3 0 0 1 -1.13-4.94zm.13 7.12h1v2h-1a1 1 0 0 1 0-2zm-5 9a6.929 6.929 0 0 1 3.04-5.75 2.963 2.963 0 0 0 1.96.75h1v13a6.993 6.993 0 0 1 -6 6.93zm26 24h-9a1 1 0 0 1 -1-1v-1h10zm0-4h-11a1 1 0 0 0 -1 1v2a3 3 0 0 0 .18 1h-5.18a4 4 0 0 1 0-8v-2a5.99 5.99 0 0 0 -4.46 10h-3.54v-7.22a9.017 9.017 0 0 0 7-8.78v-.1l2-.53v3.63a1 1 0 0 0 1 1h2v6a.987.987 0 0 0 .62.92.838.838 0 0 0 .38.08 1.007 1.007 0 0 0 .71-.29l4.29-4.3 4.29 4.3a1.007 1.007 0 0 0 .71.29.838.838 0 0 0 .38-.08.987.987 0 0 0 .62-.92v-6h1zm0-10h-2a1 1 0 0 0 -1 1v4.59l-2.78-2.79 3.31-6.62 2.47.66zm30 14h-28v-19a1 1 0 0 1 1-1h26a1 1 0 0 1 1 1z"/><circle cx="46" cy="50" r="2"/><path d="m35 56h2v2h-2z"/><path d="m39 56h2v2h-2z"/><path d="m43 56h2v2h-2z"/><path d="m47 56h2v2h-2z"/><path d="m51 56h2v2h-2z"/><path d="m55 56h2v2h-2z"/></g></svg>