<svg height="512" viewBox="0 0 64 64" width="512" xmlns="http://www.w3.org/2000/svg"><g id="woman-working-laptop-user-business_woman" data-name="woman-working-laptop-user-business woman"><path d="m26 36.31v4.69l13.52 3.6a2.013 2.013 0 0 1 1.48 1.94v14.46h-38v-14.46a2.013 2.013 0 0 1 1.48-1.94l13.52-3.6v-4.69" fill="#ffc477"/><path d="m41 46.54v14.46h-38v-14.46a1.977 1.977 0 0 1 .28-1.02c1.54 1.41 9.34 2.48 18.72 2.48s17.18-1.07 18.72-2.48a1.977 1.977 0 0 1 .28 1.02z" fill="#cd2a00"/><path d="m37 19.36a4 4 0 0 1 -3 6.64h-.04c.03-.33.04-.66.04-1v-7a4.011 4.011 0 0 1 2.72 1.07 1.1 1.1 0 0 1 .11.1 1.537 1.537 0 0 1 .17.19z" fill="#ffc477"/><path d="m32.6 11.4a15 15 0 0 1 4.12 7.67 4.011 4.011 0 0 0 -2.72-1.07l-7-5-17 5a4.011 4.011 0 0 0 -2.72 1.07 14.988 14.988 0 0 1 25.32-7.67z" fill="#ffcd00"/><path d="m34 18v7c0 .34-.01.67-.04 1a11.976 11.976 0 0 1 -7.96 10.31 11.939 11.939 0 0 1 -8 0 11.976 11.976 0 0 1 -7.96-10.31c-.03-.33-.04-.66-.04-1v-7l17-5z" fill="#ffc477"/><path d="m36.72 19.07a4.011 4.011 0 0 0 -2.72-1.07l-2.03-1.45a14.851 14.851 0 0 0 -3.37-5.15 15.053 15.053 0 0 0 -4.65-3.17 14.636 14.636 0 0 0 -3.95-1.09 14.6 14.6 0 0 1 2-.14 15.055 15.055 0 0 1 14.72 12.07z" fill="#ddb200"/><path d="m34 18v7c0 .34-.01.67-.04 1a11.976 11.976 0 0 1 -7.96 10.31 11.8 11.8 0 0 1 -4 .69 12 12 0 0 1 -2-.17 11.082 11.082 0 0 0 2-.52 11.976 11.976 0 0 0 7.96-10.31c.03-.33.04-.66.04-1v-7l-5.83-4.17 2.83-.83z" fill="#ffa733"/><path d="m31 57v4h-10a2.006 2.006 0 0 1 -2-2v-2z" fill="#acabb1"/><path d="m27.95 8.23a15.006 15.006 0 0 0 -11.9 0 6 6 0 0 1 10.19-3.47 5.914 5.914 0 0 1 1.71 3.47z" fill="#ffcd00"/><path d="m10.04 26h-.04a4 4 0 0 1 -2.83-6.83 1.1 1.1 0 0 1 .11-.1 4.011 4.011 0 0 1 2.72-1.07v7c0 .34.01.67.04 1z" fill="#ffc477"/><path d="m61 41v20h-30v-20a2.006 2.006 0 0 1 2-2h26a2.006 2.006 0 0 1 2 2z" fill="#c6c5ca"/><path d="m61 41v20h-4v-20a2.006 2.006 0 0 0 -2-2h4a2.006 2.006 0 0 1 2 2z" fill="#898890"/><path d="m16 21a3 3 0 0 0 -3 3h2a1 1 0 0 1 2 0h2a3 3 0 0 0 -3-3z"/><path d="m28 23a1 1 0 0 1 1 1h2a3 3 0 0 0 -6 0h2a1 1 0 0 1 1-1z"/><path d="m25 30h-2a1 1 0 0 1 -2 0h-2a3 3 0 0 0 6 0z"/><path d="m59 38h-26a3.009 3.009 0 0 0 -3 3v.03l-3-.8v-3.23a13.017 13.017 0 0 0 7.84-10.09 4.982 4.982 0 0 0 2.94-8.18c-.04-.05-.1-.11-.15-.17a15.987 15.987 0 0 0 -8.81-11.02 6.958 6.958 0 0 0 -6.82-5.54 7 7 0 0 0 -6.84 5.55 16.049 16.049 0 0 0 -8.79 11.02 4.978 4.978 0 0 0 2.79 8.34 13.017 13.017 0 0 0 7.84 10.09v3.23l-12.78 3.4a3.029 3.029 0 0 0 -2.22 2.91v14.46a1 1 0 0 0 1 1h58a1 1 0 0 0 1-1v-20a3.009 3.009 0 0 0 -3-3zm-22.75-17.98a3.031 3.031 0 0 1 .75 1.98 2.994 2.994 0 0 1 -2 2.81v-5.62a3.148 3.148 0 0 1 1.18.75.5.5 0 0 0 .07.08zm-14.25-16.02a4.912 4.912 0 0 1 4.38 2.62 15.983 15.983 0 0 0 -4.38-.62 15.7 15.7 0 0 0 -4.4.63 5 5 0 0 1 4.4-2.63zm-13 20.82a3 3 0 0 1 -1.13-4.94 3.1 3.1 0 0 1 1.13-.7zm-.13-7.68a14.058 14.058 0 0 1 13.13-9.14 14.07 14.07 0 0 1 13.13 9.14 4.789 4.789 0 0 0 -.76-.1l-6.79-4.85a1.015 1.015 0 0 0 -.86-.15l-16.93 4.98a4.732 4.732 0 0 0 -.92.12zm2.13 7.86v-6.25l15.81-4.65 6.19 4.41v6.49a11 11 0 0 1 -22 0zm19 35h-9a1 1 0 0 1 -1-1v-1h10zm0-4h-11a1 1 0 0 0 -1 1v2a3 3 0 0 0 .18 1h-4.18a4 4 0 0 1 0-8v-2a5.99 5.99 0 0 0 -4.46 10h-5.54v-12.96c3.41 1.34 11.06 1.96 18 1.96 2.81 0 5.49-.1 8-.28zm0-9.29c-2.49.19-5.22.29-8 .29-8.36 0-14.09-.81-16.65-1.6l12.91-3.43a1 1 0 0 0 .74-.97v-3.36a12.68 12.68 0 0 0 6 0v3.36a1 1 0 0 0 .74.97l4.26 1.13zm30 13.29h-28v-19a1 1 0 0 1 1-1h26a1 1 0 0 1 1 1z"/><circle cx="46" cy="50" r="2"/><path d="m35 56h2v2h-2z"/><path d="m39 56h2v2h-2z"/><path d="m43 56h2v2h-2z"/><path d="m47 56h2v2h-2z"/><path d="m51 56h2v2h-2z"/><path d="m55 56h2v2h-2z"/></g></svg>