<svg height="512" viewBox="0 0 64 64" width="512" xmlns="http://www.w3.org/2000/svg"><g id="working-laptop-man-boy-user"><path d="m26 36.31v4.69l13.52 3.6a2.013 2.013 0 0 1 1.48 1.94v14.46h-38v-14.46a2.013 2.013 0 0 1 1.48-1.94l13.52-3.6v-4.69" fill="#a78966"/><path d="m38 3v4a7.969 7.969 0 0 1 -4 6.92 7.851 7.851 0 0 1 -4 1.08h-20v-4a8 8 0 0 1 8-8z" fill="#ffcd00"/><path d="m34 18a4 4 0 1 1 0 8h-.04c.03-.33.04-.66.04-1z" fill="#ffc477"/><path d="m34 18v7c0 .34-.01.67-.04 1a11.976 11.976 0 0 1 -7.96 10.31 12.037 12.037 0 0 1 -12.49-2.82 11.958 11.958 0 0 1 -3.47-7.49c-.03-.33-.04-.66-.04-1v-10h20a7.851 7.851 0 0 0 4-1.08z" fill="#ffc477"/><path d="m38 3v4a7.969 7.969 0 0 1 -4 6.92 7.851 7.851 0 0 1 -4 1.08h-4a7.851 7.851 0 0 0 4-1.08 7.969 7.969 0 0 0 4-6.92v-4z" fill="#ddb200"/><path d="m34 13.92v11.08c0 .34-.01.67-.04 1a11.976 11.976 0 0 1 -7.96 10.31 11.8 11.8 0 0 1 -4 .69 12 12 0 0 1 -2-.17 11.082 11.082 0 0 0 2-.52 11.976 11.976 0 0 0 7.96-10.31c.03-.33.04-.66.04-1v-10a7.851 7.851 0 0 0 4-1.08z" fill="#ffa733"/><path d="m31 57v4h-10a2.006 2.006 0 0 1 -2-2v-2z" fill="#acabb1"/><path d="m31.57 42.48-9.57 10.52-9.57-10.52 5.57-1.48 4 5 4-5z" fill="#fee9ab"/><path d="m26 36.31v4.69l-4 5-4-5v-4.69a11.939 11.939 0 0 0 8 0z" fill="#ffc477"/><path d="m10.04 26h-.04a4 4 0 0 1 0-8v7c0 .34.01.67.04 1z" fill="#ffc477"/><path d="m61 41v20h-30v-20a2.006 2.006 0 0 1 2-2h26a2.006 2.006 0 0 1 2 2z" fill="#c6c5ca"/><path d="m61 41v20h-4v-20a2.006 2.006 0 0 0 -2-2h4a2.006 2.006 0 0 1 2 2z" fill="#898890"/><path d="m19 23a3 3 0 0 0 -6 0h2a1 1 0 0 1 2 0z"/><path d="m28 22a1 1 0 0 1 1 1h2a3 3 0 0 0 -6 0h2a1 1 0 0 1 1-1z"/><path d="m27 29h-2c0 .249-1.064 1-3 1s-3-.751-3-1h-2c0 1.71 2.149 3 5 3s5-1.29 5-3z"/><path d="m59 38h-26a3.009 3.009 0 0 0 -3 3v.03l-3-.8v-3.23a13.022 13.022 0 0 0 7.84-10.08 4.982 4.982 0 0 0 4.16-4.92 5.017 5.017 0 0 0 -4-4.9v-2.62a9.01 9.01 0 0 0 4-7.48v-4a1 1 0 0 0 -1-1h-20a9.014 9.014 0 0 0 -9 9v6.1a5 5 0 0 0 .15 9.82 12.946 12.946 0 0 0 7.85 10.09v3.22l-12.79 3.41a3.018 3.018 0 0 0 -2.21 2.9v14.46a1 1 0 0 0 1 1h58a1 1 0 0 0 1-1v-20a3.009 3.009 0 0 0 -3-3zm-50-13.18a3.179 3.179 0 0 1 -1.12-.69 3 3 0 0 1 1.12-4.95zm28-2.82a3 3 0 0 1 -.87 2.12 2.951 2.951 0 0 1 -1.13.69v-5.63a3.01 3.01 0 0 1 2 2.82zm-26-11a7.008 7.008 0 0 1 7-7h19v3a7.008 7.008 0 0 1 -7 7h-19zm3.22 21.78a10.9 10.9 0 0 1 -3.22-7.78v-9h19a8.805 8.805 0 0 0 3-.53v9.53a11 11 0 0 1 -18.78 7.78zm10.78 4.86v3.01l-3 3.75-3-3.75v-3.01a13.031 13.031 0 0 0 3 .36 12.9 12.9 0 0 0 3-.36zm-7.37 4.49 3.59 4.49a.991.991 0 0 0 1.56 0l3.59-4.49 3.35.9-7.72 8.48-7.72-8.48zm12.37 17.87h-9a1 1 0 0 1 -1-1v-1h10zm0-4h-11a1 1 0 0 0 -1 1v2a3 3 0 0 0 .18 1h-14.18v-13.46a1.017 1.017 0 0 1 .74-.97l7.36-1.96 9.16 10.06a.995.995 0 0 0 1.48 0l7.26-7.98zm30 4h-28v-19a1 1 0 0 1 1-1h26a1 1 0 0 1 1 1z"/><circle cx="46" cy="50" r="2"/><path d="m35 56h2v2h-2z"/><path d="m39 56h2v2h-2z"/><path d="m43 56h2v2h-2z"/><path d="m47 56h2v2h-2z"/><path d="m51 56h2v2h-2z"/><path d="m55 56h2v2h-2z"/></g></svg>