<svg height="512" viewBox="0 0 64 64" width="512" xmlns="http://www.w3.org/2000/svg"><g id="working-laptop-woman-girl-user"><path d="m26 36.31v4.69l13.52 3.6a2.013 2.013 0 0 1 1.48 1.94v14.46h-38v-14.46a2.013 2.013 0 0 1 1.48-1.94l13.52-3.6v-4.69" fill="#ffc477"/><path d="m12 61a5 5 0 0 1 0-10l-9-4.5a2.02 2.02 0 0 1 1.48-1.9l8.93-2.38 8.59 4.78v14z" fill="#91dc5a"/><path d="m32 61a5 5 0 0 0 0-10l9-4.5a2.02 2.02 0 0 0 -1.48-1.9l-8.93-2.38-8.59 4.78v14z" fill="#91dc5a"/><path d="m39.78 29.12a2.978 2.978 0 0 1 0 5.76 3 3 0 0 1 -5.28 2.77 3 3 0 0 1 -5.5-1.65 2.96 2.96 0 0 1 .46-1.59v-.01a11.977 11.977 0 0 0 4.5-8.4h.04a4.039 4.039 0 0 0 2.61-.97 2.561 2.561 0 0 1 .39-.03 2.994 2.994 0 0 1 2.78 4.12z" fill="#ffcd00"/><path d="m39.78 34.88a2.995 2.995 0 0 1 -4.78 3.35 2.94 2.94 0 0 0 1-2.23 2.981 2.981 0 0 0 -.22-1.12 2.978 2.978 0 0 0 0-5.76 2.981 2.981 0 0 0 .22-1.12 2.925 2.925 0 0 0 -.92-2.15 4.121 4.121 0 0 0 1.53-.82 2.561 2.561 0 0 1 .39-.03 2.994 2.994 0 0 1 2.78 4.12 2.978 2.978 0 0 1 0 5.76z" fill="#ddb200"/><path d="m38 19v3a3.995 3.995 0 0 0 -4-4v-1l-12-4-12 4v1a3.995 3.995 0 0 0 -4 4v-3a16 16 0 1 1 32 0z" fill="#ffcd00"/><path d="m38 19v3a3.995 3.995 0 0 0 -4-4v-1l-.14-.05a15.931 15.931 0 0 0 -13.88-13.82 15.009 15.009 0 0 1 2.02-.13 15.979 15.979 0 0 1 16 16z" fill="#ddb200"/><path d="m36.83 19.17a4 4 0 0 1 -2.83 6.83h-.04c.03-.33.04-.66.04-1v-7a4.025 4.025 0 0 1 2.83 1.17z" fill="#ffc477"/><path d="m34 17v8c0 .34-.01.67-.04 1a11.977 11.977 0 0 1 -4.5 8.4v.01a12.013 12.013 0 0 1 -19.42-8.41c-.03-.33-.04-.66-.04-1v-8l12-4z" fill="#ffc477"/><path d="m34 17v8c0 .34-.01.67-.04 1a11.977 11.977 0 0 1 -4.5 8.4v.01a12 12 0 0 1 -9.46 2.42 11.082 11.082 0 0 0 2-.52 11.891 11.891 0 0 0 3.46-1.9v-.01a11.977 11.977 0 0 0 4.5-8.4c.03-.33.04-.66.04-1v-8l-10-3.33 2-.67z" fill="#ffa733"/><path d="m31 57v4h-10a2.006 2.006 0 0 1 -2-2v-2z" fill="#acabb1"/><path d="m10.04 26h-.04a4 4 0 1 1 0-8v7c0 .34.01.67.04 1z" fill="#ffc477"/><path d="m61 41v20h-30v-20a2.006 2.006 0 0 1 2-2h26a2.006 2.006 0 0 1 2 2z" fill="#c6c5ca"/><path d="m61 41v20h-4v-20a2.006 2.006 0 0 0 -2-2h4a2.006 2.006 0 0 1 2 2z" fill="#898890"/><path d="m16 21a3 3 0 0 0 -3 3h2a1 1 0 0 1 2 0h2a3 3 0 0 0 -3-3z"/><path d="m28 23a1 1 0 0 1 1 1h2a3 3 0 0 0 -6 0h2a1 1 0 0 1 1-1z"/><path d="m25 30h-2a1 1 0 0 1 -2 0h-2a3 3 0 0 0 6 0z"/><path d="m59 38h-18.56a3.906 3.906 0 0 0 .56-2 3.153 3.153 0 0 0 -.04-.53 3.971 3.971 0 0 0 0-6.94 3.153 3.153 0 0 0 .04-.53 4.032 4.032 0 0 0 -2.57-3.72 5.03 5.03 0 0 0 .57-2.28v-3a17 17 0 0 0 -34 0v3a4.993 4.993 0 0 0 4.16 4.91 13.017 13.017 0 0 0 7.84 10.09v3.23l-12.79 3.41a3.018 3.018 0 0 0 -2.21 2.9v14.46a1 1 0 0 0 1 1h58a1 1 0 0 0 1-1v-20a3.009 3.009 0 0 0 -3-3zm-50-13.18a3 3 0 0 1 -1.13-4.94 3.1 3.1 0 0 1 1.13-.7zm0-7.82v.1a5.134 5.134 0 0 0 -1.95.88 14.984 14.984 0 0 1 29.9 0 5.134 5.134 0 0 0 -1.95-.88v-.1a1.014 1.014 0 0 0 -.68-.95l-12-4a1 1 0 0 0 -.64 0l-12 4a1.014 1.014 0 0 0 -.68.95zm28 5a2.994 2.994 0 0 1 -2 2.81v-5.63a3.179 3.179 0 0 1 1.12.69 3.03 3.03 0 0 1 .88 2.13zm-26 3v-7.28l11-3.67 11 3.67v7.28a11 11 0 0 1 -22 0zm7.26 16.97a1 1 0 0 0 .74-.97v-3.36a12.68 12.68 0 0 0 6 0v3.36a1 1 0 0 0 .74.97l2.2.58-5.94 3.31-5.94-3.31zm-10.72 18.03h-3.54v-11.88l5.18 2.59a5.98 5.98 0 0 0 -1.64 9.29zm22.46 0h-9a1 1 0 0 1 -1-1v-1h10zm0-4h-11a1 1 0 0 0 -1 1v2a3 3 0 0 0 .18 1h-6.18a4 4 0 0 1 0-8 1 1 0 0 0 .45-1.89l-8.27-4.14a.962.962 0 0 1 .56-.4l8.54-2.28 8.23 4.58a.988.988 0 0 0 .98 0l7.51-4.18zm0-15v.03l-3-.8v-3.23c.36-.15.71-.32 1.05-.5a3.989 3.989 0 0 0 2.3 3.13 2.874 2.874 0 0 0 -.35 1.37zm0-5a1.977 1.977 0 0 1 .27-.98 12.969 12.969 0 0 0 4.57-8.11 4.965 4.965 0 0 0 2.12-.9 1.975 1.975 0 0 1 2.04 1.99 2.006 2.006 0 0 1 -.15.75 1.021 1.021 0 0 0 .04.82.993.993 0 0 0 .63.52 1.972 1.972 0 0 1 0 3.82.993.993 0 0 0 -.63.52 1.021 1.021 0 0 0 -.04.82 2 2 0 0 1 -3.52 1.85 1.03 1.03 0 0 0 -1.66 0 2 2 0 0 1 -3.67-1.1zm30 24h-28v-19a1 1 0 0 1 1-1h26a1 1 0 0 1 1 1z"/><circle cx="46" cy="50" r="2"/><path d="m35 56h2v2h-2z"/><path d="m39 56h2v2h-2z"/><path d="m43 56h2v2h-2z"/><path d="m47 56h2v2h-2z"/><path d="m51 56h2v2h-2z"/><path d="m55 56h2v2h-2z"/></g></svg>